<?xml version="1.0" encoding="UTF-8"?>
<!DOCTYPE svg PUBLIC "-//W3C//DTD SVG 1.1//EN" "http://www.w3.org/Graphics/SVG/1.1/DTD/svg11.dtd">
<svg xmlns="http://www.w3.org/2000/svg" version="1.1" width="512px" height="512px" style="shape-rendering:geometricPrecision; text-rendering:geometricPrecision; image-rendering:optimizeQuality; fill-rule:evenodd; clip-rule:evenodd" xmlns:xlink="http://www.w3.org/1999/xlink">
<g><path style="opacity:1" fill="#5688d9" d="M 466.5,58.5 C 463.667,62.1652 460.334,65.3318 456.5,68C 453.581,68.5516 450.914,67.8849 448.5,66C 431.965,49.2982 415.299,32.7982 398.5,16.5C 398.639,12.8893 400.306,10.2226 403.5,8.5C 407.442,7.40006 411.442,7.23339 415.5,8C 433.006,24.3396 450.006,41.173 466.5,58.5 Z"/></g>
<g><path style="opacity:1" fill="#4267aa" d="M 398.5,16.5 C 415.299,32.7982 431.965,49.2982 448.5,66C 450.914,67.8849 453.581,68.5516 456.5,68C 460.334,65.3318 463.667,62.1652 466.5,58.5C 468.451,59.7158 469.951,61.3825 471,63.5C 473.383,76.9492 467.883,82.6158 454.5,80.5C 435.5,62.1667 416.833,43.5 398.5,24.5C 397.343,21.6926 397.343,19.0259 398.5,16.5 Z"/></g>
<g><path style="opacity:1" fill="#5688d9" d="M 158.5,33.5 C 157.883,33.3893 157.383,33.056 157,32.5C 155.549,34.4641 153.716,35.7974 151.5,36.5C 151.348,32.5134 149.348,31.0134 145.5,32C 142.914,34.494 142.914,36.994 145.5,39.5C 139.056,40.0286 133.889,37.6953 130,32.5C 129.617,33.056 129.117,33.3893 128.5,33.5C 130.926,26.4452 135.926,23.1119 143.5,23.5C 151.074,23.1119 156.074,26.4452 158.5,33.5 Z"/></g>
<g><path style="opacity:1" fill="#a3b5ce" d="M 398.5,24.5 C 416.833,43.5 435.5,62.1667 454.5,80.5C 447.5,87.8333 440.5,95.1667 433.5,102.5C 429.897,100.237 426.564,97.5703 423.5,94.5C 423.5,94.1667 423.5,93.8333 423.5,93.5C 431.718,87.4209 433.551,79.7542 429,70.5C 416.298,57.6314 403.465,44.9647 390.5,32.5C 392.833,29.5 395.5,26.8333 398.5,24.5 Z"/></g>
<g><path style="opacity:1" fill="#4b71bc" d="M 145.5,39.5 C 148.313,39.9754 150.313,38.9754 151.5,36.5C 153.716,35.7974 155.549,34.4641 157,32.5C 157.383,33.056 157.883,33.3893 158.5,33.5C 161.304,49.8661 154.304,57.0328 137.5,55C 128.259,50.3598 125.259,43.1931 128.5,33.5C 129.117,33.3893 129.617,33.056 130,32.5C 133.889,37.6953 139.056,40.0286 145.5,39.5 Z"/></g>
<g><path style="opacity:1" fill="#e0ecf6" d="M 151.5,36.5 C 150.313,38.9754 148.313,39.9754 145.5,39.5C 142.914,36.994 142.914,34.494 145.5,32C 149.348,31.0134 151.348,32.5134 151.5,36.5 Z"/></g>
<g><path style="opacity:1" fill="#d2d8e6" d="M 390.5,32.5 C 403.465,44.9647 416.298,57.6314 429,70.5C 433.551,79.7542 431.718,87.4209 423.5,93.5C 407.115,78.1156 391.448,62.1156 376.5,45.5C 381.167,41.1667 385.833,36.8333 390.5,32.5 Z"/></g>
<g><path style="opacity:1" fill="#5688d8" d="M 376.5,45.5 C 391.448,62.1156 407.115,78.1156 423.5,93.5C 423.5,93.8333 423.5,94.1667 423.5,94.5C 421.038,97.2939 418.038,99.2939 414.5,100.5C 412.39,99.9456 410.39,99.1123 408.5,98C 391.248,80.246 373.582,63.0794 355.5,46.5C 355.511,44.9826 356.177,43.8159 357.5,43C 364.557,39.0602 370.89,39.8935 376.5,45.5 Z"/></g>
<g><path style="opacity:1" fill="#3f65a9" d="M 355.5,46.5 C 373.582,63.0794 391.248,80.246 408.5,98C 410.39,99.1123 412.39,99.9456 414.5,100.5C 418.038,99.2939 421.038,97.2939 423.5,94.5C 426.564,97.5703 429.897,100.237 433.5,102.5C 438.686,107.598 439.852,113.598 437,120.5C 429.835,127.125 422.668,127.125 415.5,120.5C 397.754,101.252 379.42,82.4182 360.5,64C 359.906,63.5357 359.239,63.369 358.5,63.5C 353.329,58.427 352.329,52.7603 355.5,46.5 Z"/></g>
<g><path style="opacity:1" fill="#a3b6cf" d="M 358.5,63.5 C 359.239,63.369 359.906,63.5357 360.5,64C 379.42,82.4182 397.754,101.252 415.5,120.5C 403.833,131.833 392.167,143.167 380.5,154.5C 375.451,150.976 370.117,147.976 364.5,145.5C 374.931,136.143 378.765,124.476 376,110.5C 374.861,106.888 373.194,103.554 371,100.5C 362.965,92.2976 354.798,84.2976 346.5,76.5C 350.5,72.1667 354.5,67.8333 358.5,63.5 Z"/></g>
<g><path style="opacity:1" fill="#e6f2f9" d="M 346.5,76.5 C 354.798,84.2976 362.965,92.2976 371,100.5C 373.194,103.554 374.861,106.888 376,110.5C 378.765,124.476 374.931,136.143 364.5,145.5C 335.929,139.947 318.263,151.28 311.5,179.5C 311.337,184.547 311.671,189.547 312.5,194.5C 312.649,195.552 312.483,196.552 312,197.5C 305.631,204.036 299.131,210.369 292.5,216.5C 280.035,204.535 267.702,192.369 255.5,180C 254.906,179.536 254.239,179.369 253.5,179.5C 252.04,177.537 250.373,175.704 248.5,174C 281.035,141.299 313.701,108.799 346.5,76.5 Z"/></g>
<g><path style="opacity:1" fill="#5689d9" d="M 134.5,104.5 C 125.434,119.283 113.101,122.783 97.5,115C 93.8887,111.899 90.8887,108.399 88.5,104.5C 93.5675,90.4592 103.568,84.9592 118.5,88C 126.756,90.7547 132.089,96.2547 134.5,104.5 Z"/></g>
<g><path style="opacity:1" fill="#e0ecf6" d="M 113.5,95.5 C 119.488,95.664 120.821,98.164 117.5,103C 111.403,103.147 110.07,100.647 113.5,95.5 Z"/></g>
<g><path style="opacity:1" fill="#4b70bb" d="M 88.5,104.5 C 90.8887,108.399 93.8887,111.899 97.5,115C 113.101,122.783 125.434,119.283 134.5,104.5C 137.36,127.806 127.027,137.972 103.5,135C 90.0493,128.933 85.0493,118.766 88.5,104.5 Z"/></g>
<g><path style="opacity:1" fill="#5889d9" d="M 364.5,145.5 C 370.117,147.976 375.451,150.976 380.5,154.5C 381.925,155.922 382.925,157.589 383.5,159.5C 387.206,164.582 389.54,170.249 390.5,176.5C 386.11,192.555 375.777,202.555 359.5,206.5C 374.695,198.417 378.862,186.417 372,170.5C 358.259,155.883 344.593,155.883 331,170.5C 324.504,184.838 327.67,196.505 340.5,205.5C 327.38,201.717 318.38,193.384 313.5,180.5C 313.043,179.702 312.376,179.369 311.5,179.5C 318.263,151.28 335.929,139.947 364.5,145.5 Z"/></g>
<g><path style="opacity:1" fill="#e3f0f8" d="M 359.5,206.5 C 353.054,208.035 346.72,207.701 340.5,205.5C 327.67,196.505 324.504,184.838 331,170.5C 344.593,155.883 358.259,155.883 372,170.5C 378.862,186.417 374.695,198.417 359.5,206.5 Z"/></g>
<g><path style="opacity:1" fill="#a3b5ce" d="M 383.5,159.5 C 394.473,159.44 405.14,161.107 415.5,164.5C 415.334,170.842 415.5,177.175 416,183.5C 416.561,185.725 417.561,187.725 419,189.5C 427.587,195.21 436.087,201.043 444.5,207C 481.086,242.599 488.919,283.765 468,330.5C 457.393,349.773 442.227,364.273 422.5,374C 418.675,376.488 416.508,379.988 416,384.5C 415.501,390.491 415.334,396.491 415.5,402.5C 410.262,404.143 404.929,405.476 399.5,406.5C 399.666,396.828 399.5,387.161 399,377.5C 397.926,370.446 395.759,363.779 392.5,357.5C 424.115,350.72 444.281,331.72 453,300.5C 459.211,264.091 446.711,236.258 415.5,217C 405.49,211.664 394.823,208.831 383.5,208.5C 388.455,200.577 391.121,191.911 391.5,182.5C 391.427,180.41 391.094,178.41 390.5,176.5C 389.54,170.249 387.206,164.582 383.5,159.5 Z"/></g>
<g><path style="opacity:1" fill="#d3dae6" d="M 415.5,164.5 C 459.016,178.517 487.183,207.517 500,251.5C 511.286,305.318 495.786,349.485 453.5,384C 442.038,392.564 429.371,398.731 415.5,402.5C 415.334,396.491 415.501,390.491 416,384.5C 416.508,379.988 418.675,376.488 422.5,374C 442.227,364.273 457.393,349.773 468,330.5C 488.919,283.765 481.086,242.599 444.5,207C 436.087,201.043 427.587,195.21 419,189.5C 417.561,187.725 416.561,185.725 416,183.5C 415.5,177.175 415.334,170.842 415.5,164.5 Z"/></g>
<g><path style="opacity:1" fill="#5299ca" d="M 366.5,186.5 C 363.935,178.951 358.602,175.285 350.5,175.5C 347.567,175.466 344.9,176.299 342.5,178C 339.933,180.396 337.6,182.896 335.5,185.5C 336.615,170.887 344.282,165.387 358.5,169C 365.751,172.986 368.417,178.819 366.5,186.5 Z"/></g>
<g><path style="opacity:1" fill="#7dc7ec" d="M 366.5,186.5 C 364.969,194.691 359.969,199.024 351.5,199.5C 342.74,198.739 337.406,194.072 335.5,185.5C 337.6,182.896 339.933,180.396 342.5,178C 344.9,176.299 347.567,175.466 350.5,175.5C 358.602,175.285 363.935,178.951 366.5,186.5 Z"/></g>
<g><path style="opacity:1" fill="#4b71bc" d="M 390.5,176.5 C 391.094,178.41 391.427,180.41 391.5,182.5C 391.121,191.911 388.455,200.577 383.5,208.5C 371.507,222.422 356.507,226.922 338.5,222C 332.676,219.591 327.343,216.424 322.5,212.5C 318.642,206.783 315.308,200.783 312.5,194.5C 311.671,189.547 311.337,184.547 311.5,179.5C 312.376,179.369 313.043,179.702 313.5,180.5C 318.38,193.384 327.38,201.717 340.5,205.5C 346.72,207.701 353.054,208.035 359.5,206.5C 375.777,202.555 386.11,192.555 390.5,176.5 Z"/></g>
<g><path style="opacity:1" fill="#3a3b47" d="M 253.5,179.5 C 254.239,179.369 254.906,179.536 255.5,180C 267.702,192.369 280.035,204.535 292.5,216.5C 294.427,219.767 296.761,222.767 299.5,225.5C 294.167,230.5 288.833,235.5 283.5,240.5C 279.229,237.899 275.563,234.566 272.5,230.5C 274.384,227.099 274.884,223.433 274,219.5C 263.964,209.632 254.131,199.632 244.5,189.5C 247.5,186.167 250.5,182.833 253.5,179.5 Z"/></g>
<g><path style="opacity:1" fill="#a2b5ce" d="M 100.5,183.5 C 93.8881,188.67 93.8881,193.836 100.5,199C 126.5,199.667 152.5,199.667 178.5,199C 180.083,197.242 181.75,195.742 183.5,194.5C 185.582,207.387 180.249,214.387 167.5,215.5C 140.833,215.5 114.167,215.5 87.5,215.5C 74.278,214.101 69.1113,206.767 72,193.5C 73.8333,189 77,185.833 81.5,184C 87.8246,183.5 94.1579,183.334 100.5,183.5 Z"/></g>
<g><path style="opacity:1" fill="#bbcde6" d="M 100.5,183.5 C 124.836,183.333 149.169,183.5 173.5,184C 178.387,186.053 181.721,189.553 183.5,194.5C 181.75,195.742 180.083,197.242 178.5,199C 152.5,199.667 126.5,199.667 100.5,199C 93.8881,193.836 93.8881,188.67 100.5,183.5 Z"/></g>
<g><path style="opacity:1" fill="#576375" d="M 244.5,189.5 C 254.131,199.632 263.964,209.632 274,219.5C 274.884,223.433 274.384,227.099 272.5,230.5C 261.194,218.86 249.861,207.193 238.5,195.5C 240.167,193.167 242.167,191.167 244.5,189.5 Z"/></g>
<g><path style="opacity:1" fill="#3f65a9" d="M 238.5,195.5 C 249.861,207.193 261.194,218.86 272.5,230.5C 275.563,234.566 279.229,237.899 283.5,240.5C 284.793,242.296 286.293,243.963 288,245.5C 288.667,246.167 288.667,246.833 288,247.5C 281.167,254.333 274.333,261.167 267.5,268C 266.5,268.667 265.5,268.667 264.5,268C 263.295,266.624 261.962,265.458 260.5,264.5C 259.925,262.589 258.925,260.922 257.5,259.5C 260.464,257.038 263.297,254.371 266,251.5C 266.667,248.833 266.667,246.167 266,243.5C 251.632,228.965 237.132,214.631 222.5,200.5C 225.479,196.854 228.812,193.521 232.5,190.5C 234.519,192.19 236.519,193.856 238.5,195.5 Z"/></g>
<g><path style="opacity:1" fill="#a4b6cf" d="M 312.5,194.5 C 315.308,200.783 318.642,206.783 322.5,212.5C 316.87,218.631 311.036,224.631 305,230.5C 303.296,228.627 301.463,226.96 299.5,225.5C 296.761,222.767 294.427,219.767 292.5,216.5C 299.131,210.369 305.631,204.036 312,197.5C 312.483,196.552 312.649,195.552 312.5,194.5 Z"/></g>
<g><path style="opacity:1" fill="#5789d9" d="M 222.5,200.5 C 237.132,214.631 251.632,228.965 266,243.5C 266.667,246.167 266.667,248.833 266,251.5C 263.297,254.371 260.464,257.038 257.5,259.5C 243.701,246.202 230.035,232.702 216.5,219C 215.906,218.536 215.239,218.369 214.5,218.5C 213.542,217.038 212.376,215.705 211,214.5C 210.333,213.5 210.333,212.5 211,211.5C 214.702,207.63 218.536,203.963 222.5,200.5 Z"/></g>
<g><path style="opacity:1" fill="#bbcee7" d="M 87.5,215.5 C 114.167,215.5 140.833,215.5 167.5,215.5C 167.5,223.5 167.5,231.5 167.5,239.5C 152.496,239.333 137.496,239.5 122.5,240C 117.667,242.167 114.167,245.667 112,250.5C 111.667,273.833 111.333,297.167 111,320.5C 104.226,334.38 97.7265,348.38 91.5,362.5C 91.6236,363.107 91.9569,363.44 92.5,363.5C 90.6205,365.926 89.2872,368.592 88.5,371.5C 88.1667,371.5 87.8333,371.5 87.5,371.5C 78.7261,388.722 70.7261,406.388 63.5,424.5C 63.1667,424.5 62.8333,424.5 62.5,424.5C 52.7848,418.452 45.1181,410.452 39.5,400.5C 54.8173,373.199 70.6507,346.199 87,319.5C 87.5,284.835 87.6667,250.168 87.5,215.5 Z"/></g>
<g><path style="opacity:1" fill="#a4b6cf" d="M 214.5,218.5 C 215.239,218.369 215.906,218.536 216.5,219C 230.035,232.702 243.701,246.202 257.5,259.5C 258.925,260.922 259.925,262.589 260.5,264.5C 255.369,269.13 250.369,273.963 245.5,279C 241.978,278.68 239.311,276.847 237.5,273.5C 238.373,271.114 239.873,269.114 242,267.5C 242.667,264.833 242.667,262.167 242,259.5C 230.631,248.298 219.465,236.965 208.5,225.5C 210.5,223.167 212.5,220.833 214.5,218.5 Z"/></g>
<g><path style="opacity:1" fill="#d3dae6" d="M 208.5,225.5 C 219.465,236.965 230.631,248.298 242,259.5C 242.667,262.167 242.667,264.833 242,267.5C 239.873,269.114 238.373,271.114 237.5,273.5C 224.868,261.369 212.368,249.035 200,236.5C 199.333,235.5 199.333,234.5 200,233.5C 202.703,230.629 205.536,227.962 208.5,225.5 Z"/></g>
<g><path style="opacity:1" fill="#e6f2f9" d="M 167.5,239.5 C 167.333,266.169 167.5,292.835 168,319.5C 176.097,332.696 183.93,346.03 191.5,359.5C 178.167,359.5 164.833,359.5 151.5,359.5C 151.205,361.735 151.539,363.735 152.5,365.5C 154.761,372.937 159.428,378.437 166.5,382C 175.936,383.085 185.269,383.918 194.5,384.5C 184.919,385.416 175.919,388.249 167.5,393C 156.167,401.667 144.833,410.333 133.5,419C 117.492,428.602 100.159,432.602 81.5,431C 75.0738,429.914 69.0738,427.748 63.5,424.5C 70.7261,406.388 78.7261,388.722 87.5,371.5C 86.5857,383.246 91.9191,389.912 103.5,391.5C 114.599,390.065 119.932,383.732 119.5,372.5C 115.913,362.703 108.913,358.537 98.5,360C 96.3083,360.926 94.3083,362.093 92.5,363.5C 91.9569,363.44 91.6236,363.107 91.5,362.5C 97.7265,348.38 104.226,334.38 111,320.5C 111.333,297.167 111.667,273.833 112,250.5C 114.167,245.667 117.667,242.167 122.5,240C 137.496,239.5 152.496,239.333 167.5,239.5 Z"/></g>
<g><path style="opacity:1" fill="#5789da" d="M 353.5,335.5 C 370.376,336.058 383.376,343.392 392.5,357.5C 395.759,363.779 397.926,370.446 399,377.5C 399.5,387.161 399.666,396.828 399.5,406.5C 399.5,415.833 399.5,425.167 399.5,434.5C 397.68,441.151 393.347,445.318 386.5,447C 369.78,447.941 353.113,447.607 336.5,446C 331.734,443.571 328.9,439.737 328,434.5C 327.5,424.839 327.334,415.172 327.5,405.5C 341.768,417.84 356.768,418.673 372.5,408C 385.624,393.688 386.79,378.522 376,362.5C 360.679,348.607 344.845,347.94 328.5,360.5C 331.893,347.107 340.226,338.774 353.5,335.5 Z"/></g>
<g><path style="opacity:1" fill="#4b70bb" d="M 353.5,335.5 C 340.226,338.774 331.893,347.107 328.5,360.5C 316.852,375.153 316.519,390.153 327.5,405.5C 327.334,415.172 327.5,424.839 328,434.5C 328.9,439.737 331.734,443.571 336.5,446C 353.113,447.607 369.78,447.941 386.5,447C 393.347,445.318 397.68,441.151 399.5,434.5C 399.5,446.833 399.5,459.167 399.5,471.5C 367.5,471.5 335.5,471.5 303.5,471.5C 303.5,442.167 303.5,412.833 303.5,383.5C 303.66,375.023 305.66,367.023 309.5,359.5C 319.22,342.637 333.887,334.637 353.5,335.5 Z"/></g>
<g><path style="opacity:1" fill="#e3eff8" d="M 327.5,405.5 C 316.519,390.153 316.852,375.153 328.5,360.5C 344.845,347.94 360.679,348.607 376,362.5C 386.79,378.522 385.624,393.688 372.5,408C 356.768,418.673 341.768,417.84 327.5,405.5 Z"/></g>
<g><path style="opacity:1" fill="#d3d9e6" d="M 191.5,359.5 C 220.833,359.5 250.167,359.5 279.5,359.5C 279.948,364.041 279.281,368.374 277.5,372.5C 276.335,373.584 275.002,374.417 273.5,375C 237.167,375.667 200.833,375.667 164.5,375C 158.819,373.806 154.819,370.64 152.5,365.5C 151.539,363.735 151.205,361.735 151.5,359.5C 164.833,359.5 178.167,359.5 191.5,359.5 Z"/></g>
<g><path style="opacity:1" fill="#a2b5ce" d="M 279.5,359.5 C 289.5,359.5 299.5,359.5 309.5,359.5C 305.66,367.023 303.66,375.023 303.5,383.5C 290.167,383.5 276.833,383.5 263.5,383.5C 247.5,383.5 231.5,383.5 215.5,383.5C 212.5,383.5 209.5,383.5 206.5,383.5C 202.434,383.307 198.434,383.64 194.5,384.5C 185.269,383.918 175.936,383.085 166.5,382C 159.428,378.437 154.761,372.937 152.5,365.5C 154.819,370.64 158.819,373.806 164.5,375C 200.833,375.667 237.167,375.667 273.5,375C 275.002,374.417 276.335,373.584 277.5,372.5C 279.281,368.374 279.948,364.041 279.5,359.5 Z"/></g>
<g><path style="opacity:1" fill="#588ada" d="M 119.5,372.5 C 113.372,383.597 104.706,386.097 93.5,380C 90.9088,377.643 89.2421,374.809 88.5,371.5C 89.2872,368.592 90.6205,365.926 92.5,363.5C 94.3083,362.093 96.3083,360.926 98.5,360C 108.913,358.537 115.913,362.703 119.5,372.5 Z"/></g>
<g><path style="opacity:1" fill="#4f97c9" d="M 374.5,390.5 C 365.398,375.641 353.065,372.141 337.5,380C 333.886,383.103 330.886,386.603 328.5,390.5C 325.752,372.746 333.252,362.412 351,359.5C 369.308,361.967 377.142,372.301 374.5,390.5 Z"/></g>
<g><path style="opacity:1" fill="#e0ecf6" d="M 105.5,367.5 C 111.488,367.664 112.821,370.164 109.5,375C 103.403,375.147 102.07,372.647 105.5,367.5 Z"/></g>
<g><path style="opacity:1" fill="#4d73bc" d="M 87.5,371.5 C 87.8333,371.5 88.1667,371.5 88.5,371.5C 89.2421,374.809 90.9088,377.643 93.5,380C 104.706,386.097 113.372,383.597 119.5,372.5C 119.932,383.732 114.599,390.065 103.5,391.5C 91.9191,389.912 86.5857,383.246 87.5,371.5 Z"/></g>
<g><path style="opacity:1" fill="#7dc7ec" d="M 374.5,390.5 C 369.322,403.759 359.655,409.259 345.5,407C 337.344,404.01 331.677,398.51 328.5,390.5C 330.886,386.603 333.886,383.103 337.5,380C 353.065,372.141 365.398,375.641 374.5,390.5 Z"/></g>
<g><path style="opacity:1" fill="#5d96ed" d="M 206.5,383.5 C 208.749,389.005 211.749,394.005 215.5,398.5C 215.5,401.5 215.5,404.5 215.5,407.5C 217.167,407.5 218.833,407.5 220.5,407.5C 228.408,420.978 236.075,434.644 243.5,448.5C 241.049,450.123 239.049,452.289 237.5,455C 235.595,456.421 233.595,457.588 231.5,458.5C 229.938,450.772 226.771,443.772 222,437.5C 214.738,432.397 209.905,434.064 207.5,442.5C 209.447,447.726 211.947,452.726 215,457.5C 215.789,459.712 215.622,461.712 214.5,463.5C 166.499,463.667 118.499,463.5 70.5,463C 58.887,458.952 54.0537,450.785 56,438.5C 57.8907,433.718 60.0574,429.051 62.5,424.5C 62.8333,424.5 63.1667,424.5 63.5,424.5C 69.0738,427.748 75.0738,429.914 81.5,431C 100.159,432.602 117.492,428.602 133.5,419C 144.833,410.333 156.167,401.667 167.5,393C 175.919,388.249 184.919,385.416 194.5,384.5C 198.434,383.64 202.434,383.307 206.5,383.5 Z"/></g>
<g><path style="opacity:1" fill="#383844" d="M 215.5,383.5 C 231.5,383.5 247.5,383.5 263.5,383.5C 263.5,386.167 263.5,388.833 263.5,391.5C 253.828,391.334 244.161,391.5 234.5,392C 227.477,394.846 223.81,400.013 223.5,407.5C 222.5,407.5 221.5,407.5 220.5,407.5C 218.833,407.5 217.167,407.5 215.5,407.5C 215.5,404.5 215.5,401.5 215.5,398.5C 215.5,393.5 215.5,388.5 215.5,383.5 Z"/></g>
<g><path style="opacity:1" fill="#566375" d="M 263.5,391.5 C 263.5,396.833 263.5,402.167 263.5,407.5C 250.167,407.5 236.833,407.5 223.5,407.5C 223.81,400.013 227.477,394.846 234.5,392C 244.161,391.5 253.828,391.334 263.5,391.5 Z"/></g>
<g><path style="opacity:1" fill="#4b70bb" d="M 39.5,400.5 C 45.1181,410.452 52.7848,418.452 62.5,424.5C 60.0574,429.051 57.8907,433.718 56,438.5C 54.0537,450.785 58.887,458.952 70.5,463C 118.499,463.5 166.499,463.667 214.5,463.5C 213.655,467.015 211.655,469.681 208.5,471.5C 199.167,471.5 189.833,471.5 180.5,471.5C 165.377,468.599 152.544,472.599 142,483.5C 137.729,489.481 135.562,496.147 135.5,503.5C 100.832,503.667 66.1651,503.5 31.5,503C 19,499.833 11.1667,492 8,479.5C 5.79808,465.176 8.46474,451.843 16,439.5C 23.8591,426.436 31.6925,413.436 39.5,400.5 Z"/></g>
<g><path style="opacity:1" fill="#e3f0f9" d="M 194.5,402.5 C 200.717,402.538 204.884,405.538 207,411.5C 207.747,421.048 203.58,424.215 194.5,421C 190.832,417.176 189.332,412.676 190,407.5C 191.025,405.313 192.525,403.646 194.5,402.5 Z"/></g>
<g><path style="opacity:1" fill="#e4f0f9" d="M 231.5,458.5 C 231.577,462.962 230.91,467.295 229.5,471.5C 222.5,471.5 215.5,471.5 208.5,471.5C 211.655,469.681 213.655,467.015 214.5,463.5C 215.622,461.712 215.789,459.712 215,457.5C 211.947,452.726 209.447,447.726 207.5,442.5C 209.905,434.064 214.738,432.397 222,437.5C 226.771,443.772 229.938,450.772 231.5,458.5 Z"/></g>
<g><path style="opacity:1" fill="#4b71bc" d="M 243.5,448.5 C 246.629,455.817 247.963,463.484 247.5,471.5C 241.5,471.5 235.5,471.5 229.5,471.5C 230.91,467.295 231.577,462.962 231.5,458.5C 233.595,457.588 235.595,456.421 237.5,455C 239.049,452.289 241.049,450.123 243.5,448.5 Z"/></g>
<g><path style="opacity:1" fill="#ec9c3e" d="M 180.5,471.5 C 175.514,474.706 174.348,479.039 177,484.5C 177.903,485.701 179.069,486.535 180.5,487C 279.167,487.667 377.833,487.667 476.5,487C 478.078,485.906 479.745,485.072 481.5,484.5C 485.877,489.969 487.877,496.303 487.5,503.5C 370.167,503.5 252.833,503.5 135.5,503.5C 135.562,496.147 137.729,489.481 142,483.5C 152.544,472.599 165.377,468.599 180.5,471.5 Z"/></g>
<g><path style="opacity:1" fill="#f9ba4b" d="M 180.5,471.5 C 189.833,471.5 199.167,471.5 208.5,471.5C 215.5,471.5 222.5,471.5 229.5,471.5C 235.5,471.5 241.5,471.5 247.5,471.5C 266.167,471.5 284.833,471.5 303.5,471.5C 335.5,471.5 367.5,471.5 399.5,471.5C 420.836,471.333 442.169,471.5 463.5,472C 471.342,473.699 477.342,477.866 481.5,484.5C 479.745,485.072 478.078,485.906 476.5,487C 377.833,487.667 279.167,487.667 180.5,487C 179.069,486.535 177.903,485.701 177,484.5C 174.348,479.039 175.514,474.706 180.5,471.5 Z"/></g>
</svg>
