<?xml version="1.0" encoding="UTF-8"?>
<!DOCTYPE svg PUBLIC "-//W3C//DTD SVG 1.1//EN" "http://www.w3.org/Graphics/SVG/1.1/DTD/svg11.dtd">
<svg xmlns="http://www.w3.org/2000/svg" version="1.1" width="512px" height="512px" style="shape-rendering:geometricPrecision; text-rendering:geometricPrecision; image-rendering:optimizeQuality; fill-rule:evenodd; clip-rule:evenodd" xmlns:xlink="http://www.w3.org/1999/xlink">
<g><path style="opacity:1" fill="#001925" d="M 390.5,18.5 C 395.635,17.4262 399.468,19.0928 402,23.5C 402.5,41.1635 402.667,58.8302 402.5,76.5C 415.45,74.7993 428.45,74.2993 441.5,75C 443.286,75.7845 444.786,76.9512 446,78.5C 446.333,93.1667 446.667,107.833 447,122.5C 455.898,124.266 464.731,126.433 473.5,129C 474.333,129.833 475.167,130.667 476,131.5C 477.456,142.731 477.956,154.064 477.5,165.5C 484.841,165.334 492.174,165.5 499.5,166C 504.598,167.433 508.098,170.6 510,175.5C 510.667,277.833 510.667,380.167 510,482.5C 508.098,487.4 504.598,490.567 499.5,492C 432.167,492.667 364.833,492.667 297.5,492C 292.979,491.271 288.646,489.937 284.5,488C 275.04,483.015 265.373,478.515 255.5,474.5C 245.627,478.515 235.96,483.015 226.5,488C 222.354,489.937 218.021,491.271 213.5,492C 146.167,492.667 78.8333,492.667 11.5,492C 6.40183,490.567 2.90183,487.4 1,482.5C 0.333333,380.167 0.333333,277.833 1,175.5C 2.90183,170.6 6.40183,167.433 11.5,166C 19.1594,165.5 26.8261,165.334 34.5,165.5C 34.0427,153.732 34.5427,142.065 36,130.5C 37.1711,129.107 38.6711,128.273 40.5,128C 48.4413,125.848 56.4413,124.014 64.5,122.5C 65.3328,107.845 65.8328,93.178 66,78.5C 67.214,76.9512 68.714,75.7845 70.5,75C 110.661,73.4566 148.328,82.4566 183.5,102C 208.963,116.461 232.463,133.628 254,153.5C 275.268,117.544 301.101,85.044 331.5,56C 348.929,39.9538 368.596,27.4538 390.5,18.5 Z"/></g>
<g><path style="opacity:1" fill="#e6ecf9" d="M 384.5,39.5 C 385.499,130.998 385.833,222.665 385.5,314.5C 364.014,324.417 344.681,337.584 327.5,354C 303.68,378.14 282.513,404.307 264,432.5C 263.833,388.833 263.667,345.167 263.5,301.5C 263.341,256.776 263.841,212.109 265,167.5C 281.976,138.551 301.643,111.551 324,86.5C 341.469,67.1783 361.636,51.5117 384.5,39.5 Z"/></g>
<g><path style="opacity:1" fill="#8d9aa9" d="M 384.5,39.5 C 384.56,38.9569 384.893,38.6236 385.5,38.5C 386.832,130.666 386.832,222.666 385.5,314.5C 385.833,222.665 385.499,130.998 384.5,39.5 Z"/></g>
<g><path style="opacity:1" fill="#e6ecf9" d="M 247.5,171.5 C 247.833,261.668 247.499,351.668 246.5,441.5C 207.905,404.865 162.238,381.365 109.5,371C 100.203,369.704 90.8697,368.87 81.5,368.5C 81.5,275.833 81.5,183.167 81.5,90.5C 118.833,92.2221 153.499,102.722 185.5,122C 208.441,135.788 229.108,152.288 247.5,171.5 Z"/></g>
<g><path style="opacity:1" fill="#95d3f2" d="M 410.5,91.5 C 417.167,91.5 423.833,91.5 430.5,91.5C 430.5,183.833 430.5,276.167 430.5,368.5C 380.341,371.273 335.174,387.606 295,417.5C 314.23,388.596 338.063,363.763 366.5,343C 377.825,336.422 389.325,330.256 401,324.5C 402.158,247.555 402.991,170.555 403.5,93.5C 405.982,92.9329 408.316,92.2663 410.5,91.5 Z"/></g>
<g><path style="opacity:1" fill="#1182e5" d="M 62.5,139.5 C 63.5,139.5 64.5,139.5 65.5,139.5C 65.3333,219.501 65.5,299.501 66,379.5C 66.8333,381.667 68.3333,383.167 70.5,384C 117.787,384.43 160.787,398.097 199.5,425C 150.637,409.384 100.97,406.55 50.5,416.5C 50.3333,325.166 50.5,233.833 51,142.5C 54.9173,141.439 58.7506,140.439 62.5,139.5 Z"/></g>
<g><path style="opacity:1" fill="#1180e1" d="M 446.5,139.5 C 451.468,140.659 456.468,141.659 461.5,142.5C 461.5,233.833 461.5,325.167 461.5,416.5C 426.981,409.644 392.315,408.81 357.5,414C 342.629,416.839 327.962,420.172 313.5,424C 351.94,397.411 394.606,384.077 441.5,384C 443.667,383.167 445.167,381.667 446,379.5C 446.5,299.501 446.667,219.501 446.5,139.5 Z"/></g>
<g><path style="opacity:1" fill="#021a27" d="M 108.5,148.5 C 137.265,152.922 164.265,162.422 189.5,177C 203.524,185.009 216.858,194.009 229.5,204C 236.09,209.182 236.09,214.182 229.5,219C 227.167,219.667 224.833,219.667 222.5,219C 188.806,191.323 150.473,172.989 107.5,164C 101.974,158.357 102.308,153.19 108.5,148.5 Z"/></g>
<g><path style="opacity:1" fill="#5c6f7c" d="M 247.5,171.5 C 248.832,261.668 248.832,352.001 247.5,442.5C 246.893,442.376 246.56,442.043 246.5,441.5C 247.499,351.668 247.833,261.668 247.5,171.5 Z"/></g>
<g><path style="opacity:1" fill="#243d87" d="M 16.5,181.5 C 22.5,181.5 28.5,181.5 34.5,181.5C 34.005,274.248 34.505,366.915 36,459.5C 36.9025,460.701 38.0692,461.535 39.5,462C 95.8333,462.667 152.167,462.667 208.5,462C 214.621,459.44 220.621,456.606 226.5,453.5C 231.825,455.827 236.825,458.66 241.5,462C 231.307,467.763 220.641,472.43 209.5,476C 145.168,476.5 80.8342,476.667 16.5,476.5C 16.5,378.167 16.5,279.833 16.5,181.5 Z"/></g>
<g><path style="opacity:1" fill="#243d86" d="M 476.5,181.5 C 482.5,181.5 488.5,181.5 494.5,181.5C 494.5,279.833 494.5,378.167 494.5,476.5C 429.832,476.667 365.166,476.5 300.5,476C 290.277,472.223 280.277,467.889 270.5,463C 269.167,462.333 269.167,461.667 270.5,461C 275.326,458.754 279.992,456.254 284.5,453.5C 290.379,456.606 296.379,459.44 302.5,462C 360.499,462.5 418.499,462.667 476.5,462.5C 476.5,368.833 476.5,275.167 476.5,181.5 Z"/></g>
<g><path style="opacity:1" fill="#021b27" d="M 107.5,216.5 C 134.383,219.738 159.716,227.905 183.5,241C 201.897,250.767 218.731,262.6 234,276.5C 234.5,284 231,287.5 223.5,287C 189.035,259.103 150.035,240.27 106.5,230.5C 102.308,225.509 102.642,220.842 107.5,216.5 Z"/></g>
<g><path style="opacity:1" fill="#021a26" d="M 107.5,291.5 C 121.896,292.765 135.896,295.932 149.5,301C 179.346,312.58 206.679,328.247 231.5,348C 236.041,353.838 235.041,358.505 228.5,362C 226.833,362.667 225.167,362.667 223.5,362C 189.141,333.99 150.141,315.323 106.5,306C 102.268,300.809 102.601,295.975 107.5,291.5 Z"/></g>
<g><path style="opacity:1" fill="#1180e2" d="M 86.5,426.5 C 127.925,423.687 167.925,429.853 206.5,445C 206.167,445.333 205.833,445.667 205.5,446C 153.917,447.491 102.251,447.991 50.5,447.5C 50.1975,442.57 50.5308,437.737 51.5,433C 63.1831,430.166 74.8498,428 86.5,426.5 Z"/></g>
<g><path style="opacity:1" fill="#1180e2" d="M 377.5,426.5 C 405.444,425.041 433.111,427.041 460.5,432.5C 460.5,437.5 460.5,442.5 460.5,447.5C 409.499,447.667 358.499,447.5 307.5,447C 306.328,446.581 305.328,445.915 304.5,445C 328.205,435.824 352.538,429.658 377.5,426.5 Z"/></g>
</svg>
