<?xml version="1.0" encoding="UTF-8"?>
<!DOCTYPE svg PUBLIC "-//W3C//DTD SVG 1.1//EN" "http://www.w3.org/Graphics/SVG/1.1/DTD/svg11.dtd">
<svg xmlns="http://www.w3.org/2000/svg" version="1.1" width="512px" height="512px" style="shape-rendering:geometricPrecision; text-rendering:geometricPrecision; image-rendering:optimizeQuality; fill-rule:evenodd; clip-rule:evenodd" xmlns:xlink="http://www.w3.org/1999/xlink">
<g><path style="opacity:1" fill="#000000" d="M 390.5,18.5 C 395.635,17.4262 399.468,19.0928 402,23.5C 402.5,41.1635 402.667,58.8302 402.5,76.5C 415.447,74.7522 428.447,74.2522 441.5,75C 443.286,75.7845 444.786,76.9512 446,78.5C 447.451,93.4283 447.951,108.428 447.5,123.5C 455.311,124.202 462.978,125.702 470.5,128C 472.848,128.346 474.681,129.513 476,131.5C 477.456,142.731 477.956,154.064 477.5,165.5C 484.841,165.334 492.174,165.5 499.5,166C 504.598,167.433 508.098,170.6 510,175.5C 510.667,277.833 510.667,380.167 510,482.5C 508.098,487.4 504.598,490.567 499.5,492C 432.167,492.667 364.833,492.667 297.5,492C 293.016,491.129 288.683,489.796 284.5,488C 275.069,482.95 265.402,478.45 255.5,474.5C 246.404,478.422 237.404,482.589 228.5,487C 223.637,489.066 218.637,490.732 213.5,492C 146.167,492.667 78.8333,492.667 11.5,492C 6.40183,490.567 2.90183,487.4 1,482.5C 0.333333,380.167 0.333333,277.833 1,175.5C 2.92678,170.572 6.42678,167.406 11.5,166C 19.1594,165.5 26.8261,165.334 34.5,165.5C 34.0427,153.732 34.5427,142.065 36,130.5C 37.1711,129.107 38.6711,128.273 40.5,128C 48.4962,126.101 56.4962,124.268 64.5,122.5C 65.3328,108.178 65.8328,93.8449 66,79.5C 66.8333,77.3333 68.3333,75.8333 70.5,75C 111.447,73.4867 149.781,82.82 185.5,103C 210.557,116.782 233.391,133.616 254,153.5C 275.358,118.791 300.525,86.958 329.5,58C 347.581,41.2968 367.914,28.1301 390.5,18.5 Z M 384.5,39.5 C 385.832,131.001 385.832,222.668 384.5,314.5C 365.491,322.688 348.491,333.855 333.5,348C 306.896,372.583 284.063,400.083 265,430.5C 264.333,343.5 264.333,256.5 265,169.5C 288.175,127.981 317.675,91.4811 353.5,60C 363.556,52.6463 373.889,45.813 384.5,39.5 Z M 82.5,91.5 C 108.994,92.2903 134.328,98.1236 158.5,109C 191.577,124.447 221.077,144.947 247,170.5C 247.667,260.5 247.667,350.5 247,440.5C 210.763,407.125 168.596,384.291 120.5,372C 107.631,369.344 94.6311,367.844 81.5,367.5C 82.4876,275.518 82.821,183.518 82.5,91.5 Z M 298.5,413.5 C 317.937,385.563 341.603,361.73 369.5,342C 378.942,335.946 388.942,330.946 399.5,327C 400.701,326.097 401.535,324.931 402,323.5C 402.5,246.834 402.667,170.167 402.5,93.5C 411.465,92.3929 420.465,91.7263 429.5,91.5C 429.5,183.5 429.5,275.5 429.5,367.5C 393.323,369.211 359.323,378.711 327.5,396C 317.685,401.662 308.018,407.495 298.5,413.5 Z M 194.5,422.5 C 147.397,408.515 99.7305,406.182 51.5,415.5C 51.5,324.5 51.5,233.5 51.5,142.5C 56.147,141.704 60.8137,141.037 65.5,140.5C 64.8419,180.472 64.5086,220.472 64.5,260.5C 64.3446,300.878 64.8446,341.212 66,381.5C 66.9025,382.701 68.0692,383.535 69.5,384C 115.19,384.289 156.856,397.122 194.5,422.5 Z M 317.5,422.5 C 355.964,396.957 398.298,383.79 444.5,383C 445.126,382.25 445.626,381.416 446,380.5C 446.5,300.501 446.667,220.501 446.5,140.5C 451.167,141.167 455.833,141.833 460.5,142.5C 460.5,233.5 460.5,324.5 460.5,415.5C 412.259,406.161 364.592,408.494 317.5,422.5 Z M 17.5,182.5 C 23.1667,182.5 28.8333,182.5 34.5,182.5C 34.3333,274.834 34.5,367.167 35,459.5C 36.214,461.049 37.714,462.215 39.5,463C 95.8333,463.667 152.167,463.667 208.5,463C 214.379,459.894 220.379,457.06 226.5,454.5C 231.326,456.746 235.992,459.246 240.5,462C 230.754,466.872 220.754,471.205 210.5,475C 146.168,475.5 81.8342,475.667 17.5,475.5C 17.5,377.833 17.5,280.167 17.5,182.5 Z M 477.5,182.5 C 482.833,182.5 488.167,182.5 493.5,182.5C 493.5,280.167 493.5,377.833 493.5,475.5C 429.166,475.667 364.832,475.5 300.5,475C 290.277,471.223 280.277,466.889 270.5,462C 275.008,459.246 279.674,456.746 284.5,454.5C 290.621,457.06 296.621,459.894 302.5,463C 360.499,463.5 418.499,463.667 476.5,463.5C 477.475,369.843 477.809,276.176 477.5,182.5 Z M 99.5,426.5 C 135.701,425.978 170.701,432.144 204.5,445C 204.167,445.333 203.833,445.667 203.5,446C 152.501,446.5 101.501,446.667 50.5,446.5C 50.5,442.167 50.5,437.833 50.5,433.5C 66.8208,430.121 83.1542,427.787 99.5,426.5 Z M 394.5,426.5 C 416.458,426.287 438.124,428.62 459.5,433.5C 459.5,437.833 459.5,442.167 459.5,446.5C 408.832,446.667 358.166,446.5 307.5,446C 307.167,445.667 306.833,445.333 306.5,445C 335.015,434.265 364.349,428.098 394.5,426.5 Z"/></g>
<g><path style="opacity:1" fill="#000000" d="M 107.5,148.5 C 135.876,152.014 162.543,160.848 187.5,175C 202.379,183.883 216.713,193.55 230.5,204C 236.255,210.137 235.588,215.47 228.5,220C 226.833,220.667 225.167,220.667 223.5,220C 188.702,191.937 149.369,172.937 105.5,163C 103.571,159.744 103.071,156.244 104,152.5C 104.69,150.65 105.856,149.316 107.5,148.5 Z"/></g>
<g><path style="opacity:1" fill="#000000" d="M 108.5,215.5 C 136.887,219.574 163.554,228.74 188.5,243C 203.379,251.883 217.713,261.55 231.5,272C 234.803,275.795 235.303,279.962 233,284.5C 230.005,287.265 226.505,288.098 222.5,287C 188.368,259.269 149.701,240.603 106.5,231C 103.606,228.091 102.773,224.591 104,220.5C 105.025,218.313 106.525,216.646 108.5,215.5 Z"/></g>
<g><path style="opacity:1" fill="#000000" d="M 109.5,290.5 C 156.782,298.893 198.282,318.893 234,350.5C 235.278,360.221 231.111,364.055 221.5,362C 187.648,333.743 148.981,315.076 105.5,306C 103.571,302.744 103.071,299.244 104,295.5C 105.107,292.887 106.94,291.22 109.5,290.5 Z"/></g>
</svg>
