<?xml version="1.0" encoding="UTF-8"?>
<!DOCTYPE svg PUBLIC "-//W3C//DTD SVG 1.1//EN" "http://www.w3.org/Graphics/SVG/1.1/DTD/svg11.dtd">
<svg xmlns="http://www.w3.org/2000/svg" version="1.1" width="512px" height="512px" style="shape-rendering:geometricPrecision; text-rendering:geometricPrecision; image-rendering:optimizeQuality; fill-rule:evenodd; clip-rule:evenodd" xmlns:xlink="http://www.w3.org/1999/xlink">
<g><path style="opacity:1" fill="#010000" d="M 448.5,90.5 C 445.251,89.9588 442.751,88.2921 441,85.5C 440.5,77.5069 440.334,69.5069 440.5,61.5C 413.833,61.5 387.167,61.5 360.5,61.5C 360.333,74.1711 360.5,86.8377 361,99.5C 387.637,124.469 413.97,149.803 440,175.5C 440.333,155.5 440.667,135.5 441,115.5C 442.41,112.211 444.91,110.544 448.5,110.5C 452.601,110.43 455.101,112.43 456,116.5C 456.333,141.167 456.667,165.833 457,190.5C 474.015,207.016 491.182,223.349 508.5,239.5C 510.466,242.549 510.966,245.882 510,249.5C 499.127,259.375 487.961,268.875 476.5,278C 473.833,278.667 471.167,278.667 468.5,278C 463.699,274.201 459.199,270.034 455,265.5C 454.5,320.832 454.333,376.166 454.5,431.5C 471.503,431.333 488.503,431.5 505.5,432C 507.887,432.564 509.887,433.73 511.5,435.5C 511.5,458.5 511.5,481.5 511.5,504.5C 510.684,506.144 509.35,507.31 507.5,508C 339.5,508.667 171.5,508.667 3.5,508C 1.64977,507.31 0.316435,506.144 -0.5,504.5C -0.5,481.5 -0.5,458.5 -0.5,435.5C 1.11327,433.73 3.11327,432.564 5.5,432C 22.4967,431.5 39.4967,431.333 56.5,431.5C 56.3334,403.498 56.5,375.498 57,347.5C 57.7291,343.271 60.2291,340.938 64.5,340.5C 67.5867,341.053 70.0867,342.72 72,345.5C 72.5,374.498 72.6666,403.498 72.5,432.5C 78.5092,432.334 84.5092,432.501 90.5,433C 92.6667,433.833 94.1667,435.333 95,437.5C 95.4999,455.83 95.6666,474.164 95.5,492.5C 98.2869,493.477 101.287,493.81 104.5,493.5C 104.5,422.833 104.5,352.167 104.5,281.5C 104.848,278.981 106.181,277.147 108.5,276C 152.5,275.333 196.5,275.333 240.5,276C 242.923,277.571 244.256,279.737 244.5,282.5C 244.5,352.833 244.5,423.167 244.5,493.5C 251.833,493.5 259.167,493.5 266.5,493.5C 266.5,475.5 266.5,457.5 266.5,439.5C 266.744,436.737 268.077,434.571 270.5,433C 326.499,432.5 382.499,432.333 438.5,432.5C 438.5,377.833 438.5,323.167 438.5,268.5C 438.666,261.825 438.5,255.158 438,248.5C 377.318,190.318 316.485,132.318 255.5,74.5C 194.515,132.318 133.682,190.318 73,248.5C 72.5004,255.158 72.3337,261.825 72.5,268.5C 72.6666,283.837 72.4999,299.17 72,314.5C 70.8761,318.462 68.3761,320.795 64.5,321.5C 60.5571,320.724 58.0571,318.391 57,314.5C 56.6667,298.167 56.3333,281.833 56,265.5C 51.8006,270.034 47.3006,274.201 42.5,278C 39.8333,278.667 37.1667,278.667 34.5,278C 23.0395,268.875 11.8728,259.375 1,249.5C 0.333333,246.833 0.333333,244.167 1,241.5C 83.8681,161.298 167.368,81.7976 251.5,3C 255.533,1.95959 259.199,2.62626 262.5,5C 289.667,30.8333 316.833,56.6667 344,82.5C 344.333,72.5 344.667,62.5 345,52.5C 345.833,49 348,46.8333 351.5,46C 385.227,45.021 418.894,45.3544 452.5,47C 454.487,48.3189 455.654,50.1523 456,52.5C 456.667,63.1667 456.667,73.8333 456,84.5C 455.097,88.531 452.597,90.531 448.5,90.5 Z"/></g>
<g><path style="opacity:1" fill="#e44350" d="M 253.5,21.5 C 254.873,21.3433 256.207,21.51 257.5,22C 335.197,96.6983 413.197,171.032 491.5,245C 485.611,250.524 479.444,255.69 473,260.5C 402.167,193 331.333,125.5 260.5,58C 257.167,56 253.833,56 250.5,58C 179.667,125.5 108.833,193 38,260.5C 31.5558,255.69 25.3891,250.524 19.5,245C 98.0014,170.998 176.001,96.498 253.5,21.5 Z"/></g>
<g><path style="opacity:1" fill="#9baeb4" d="M 448.5,90.5 C 448.5,97.1667 448.5,103.833 448.5,110.5C 444.91,110.544 442.41,112.211 441,115.5C 440.667,135.5 440.333,155.5 440,175.5C 413.97,149.803 387.637,124.469 361,99.5C 360.5,86.8377 360.333,74.1711 360.5,61.5C 387.167,61.5 413.833,61.5 440.5,61.5C 440.334,69.5069 440.5,77.5069 441,85.5C 442.751,88.2921 445.251,89.9588 448.5,90.5 Z"/></g>
<g><path style="opacity:1" fill="#ccccd2" d="M 438.5,268.5 C 377.52,210.522 316.52,152.522 255.5,94.5C 194.48,152.522 133.48,210.522 72.5,268.5C 72.3337,261.825 72.5004,255.158 73,248.5C 133.682,190.318 194.515,132.318 255.5,74.5C 316.485,132.318 377.318,190.318 438,248.5C 438.5,255.158 438.666,261.825 438.5,268.5 Z"/></g>
<g><path style="opacity:1" fill="#e6e6ec" d="M 438.5,268.5 C 438.5,323.167 438.5,377.833 438.5,432.5C 382.499,432.333 326.499,432.5 270.5,433C 268.077,434.571 266.744,436.737 266.5,439.5C 265.503,456.992 265.17,474.659 265.5,492.5C 258.833,492.5 252.167,492.5 245.5,492.5C 245.833,422.331 245.499,352.331 244.5,282.5C 244.256,279.737 242.923,277.571 240.5,276C 196.5,275.333 152.5,275.333 108.5,276C 106.181,277.147 104.848,278.981 104.5,281.5C 103.501,351.665 103.167,421.998 103.5,492.5C 100.833,492.5 98.1667,492.5 95.5,492.5C 95.6666,474.164 95.4999,455.83 95,437.5C 94.1667,435.333 92.6667,433.833 90.5,433C 84.5092,432.501 78.5092,432.334 72.5,432.5C 72.6666,403.498 72.5,374.498 72,345.5C 70.0867,342.72 67.5867,341.053 64.5,340.5C 64.5,334.167 64.5,327.833 64.5,321.5C 68.3761,320.795 70.8761,318.462 72,314.5C 72.4999,299.17 72.6666,283.837 72.5,268.5C 133.48,210.522 194.48,152.522 255.5,94.5C 316.52,152.522 377.52,210.522 438.5,268.5 Z"/></g>
<g><path style="opacity:1" fill="#020202" d="M 250.5,143.5 C 278.865,143.54 294.531,157.54 297.5,185.5C 295.54,212.127 281.207,226.46 254.5,228.5C 228.863,225.53 215.196,211.197 213.5,185.5C 215.238,162.099 227.571,148.099 250.5,143.5 Z"/></g>
<g><path style="opacity:1" fill="#3d313d" d="M 251.5,158.5 C 270.161,158.471 280.494,167.637 282.5,186C 280.636,202.697 271.302,211.864 254.5,213.5C 233.811,209.455 225.644,197.122 230,176.5C 234.322,167.005 241.488,161.005 251.5,158.5 Z"/></g>
<g><path style="opacity:1" fill="#010100" d="M 270.5,275.5 C 320.893,275.014 371.226,275.514 421.5,277C 422.701,277.903 423.535,279.069 424,280.5C 424.984,324.892 424.651,369.226 423,413.5C 422.097,414.701 420.931,415.535 419.5,416C 369.442,416.986 319.442,416.653 269.5,415C 268.667,414.167 267.833,413.333 267,412.5C 266.333,368.167 266.333,323.833 267,279.5C 268.376,278.295 269.542,276.962 270.5,275.5 Z"/></g>
<g><path style="opacity:1" fill="#656566" d="M 104.5,281.5 C 104.5,352.167 104.5,422.833 104.5,493.5C 101.287,493.81 98.2869,493.477 95.5,492.5C 98.1667,492.5 100.833,492.5 103.5,492.5C 103.167,421.998 103.501,351.665 104.5,281.5 Z"/></g>
<g><path style="opacity:1" fill="#96969c" d="M 244.5,282.5 C 245.499,352.331 245.833,422.331 245.5,492.5C 252.167,492.5 258.833,492.5 265.5,492.5C 265.17,474.659 265.503,456.992 266.5,439.5C 266.5,457.5 266.5,475.5 266.5,493.5C 259.167,493.5 251.833,493.5 244.5,493.5C 244.5,423.167 244.5,352.833 244.5,282.5 Z"/></g>
<g><path style="opacity:1" fill="#a15c18" d="M 281.5,291.5 C 323.997,290.501 366.663,290.168 409.5,290.5C 409.825,298.352 409.492,306.018 408.5,313.5C 408.5,306.167 408.5,298.833 408.5,291.5C 366.167,291.5 323.833,291.5 281.5,291.5 Z"/></g>
<g><path style="opacity:1" fill="#c76f1e" d="M 119.5,290.5 C 156.167,290.5 192.833,290.5 229.5,290.5C 229.5,357.833 229.5,425.167 229.5,492.5C 192.833,492.5 156.167,492.5 119.5,492.5C 119.5,425.167 119.5,357.833 119.5,290.5 Z"/></g>
<g><path style="opacity:1" fill="#c7701e" d="M 281.5,291.5 C 323.833,291.5 366.167,291.5 408.5,291.5C 408.5,298.833 408.5,306.167 408.5,313.5C 366.167,313.5 323.833,313.5 281.5,313.5C 281.5,306.167 281.5,298.833 281.5,291.5 Z"/></g>
<g><path style="opacity:1" fill="#9cd4ec" d="M 281.5,329.5 C 323.833,329.5 366.167,329.5 408.5,329.5C 408.5,353.167 408.5,376.833 408.5,400.5C 366.167,400.5 323.833,400.5 281.5,400.5C 281.5,376.833 281.5,353.167 281.5,329.5 Z"/></g>
<g><path style="opacity:1" fill="#040200" d="M 191.5,383.5 C 199.917,383.094 208.251,383.594 216.5,385C 219.349,387.559 220.183,390.726 219,394.5C 218.5,396.333 217.333,397.5 215.5,398C 207.167,398.667 198.833,398.667 190.5,398C 185.057,392.809 185.391,387.976 191.5,383.5 Z"/></g>
<g><path style="opacity:1" fill="#6b91a4" d="M 281.5,329.5 C 323.997,328.501 366.663,328.168 409.5,328.5C 409.5,352.833 409.5,377.167 409.5,401.5C 366.663,401.832 323.997,401.499 281.5,400.5C 323.833,400.5 366.167,400.5 408.5,400.5C 408.5,376.833 408.5,353.167 408.5,329.5C 366.167,329.5 323.833,329.5 281.5,329.5 Z"/></g>
<g><path style="opacity:1" fill="#82bb0b" d="M 495.5,447.5 C 495.5,462.5 495.5,477.5 495.5,492.5C 424.167,492.5 352.833,492.5 281.5,492.5C 281.5,477.5 281.5,462.5 281.5,447.5C 352.833,447.5 424.167,447.5 495.5,447.5 Z"/></g>
<g><path style="opacity:1" fill="#598605" d="M 15.5,447.5 C 15.5,462.5 15.5,477.5 15.5,492.5C 36.8333,492.5 58.1667,492.5 79.5,492.5C 79.5,477.5 79.5,462.5 79.5,447.5C 80.4962,462.658 80.8295,477.991 80.5,493.5C 58.5,493.5 36.5,493.5 14.5,493.5C 14.1705,477.991 14.5038,462.658 15.5,447.5 Z"/></g>
<g><path style="opacity:1" fill="#82bb0b" d="M 15.5,447.5 C 36.8333,447.5 58.1667,447.5 79.5,447.5C 79.5,462.5 79.5,477.5 79.5,492.5C 58.1667,492.5 36.8333,492.5 15.5,492.5C 15.5,477.5 15.5,462.5 15.5,447.5 Z"/></g>
<g><path style="opacity:1" fill="#6f3e10" d="M 119.5,290.5 C 119.5,357.833 119.5,425.167 119.5,492.5C 156.167,492.5 192.833,492.5 229.5,492.5C 192.67,493.498 155.67,493.832 118.5,493.5C 118.167,425.665 118.501,357.998 119.5,290.5 Z"/></g>
<g><path style="opacity:1" fill="#588506" d="M 495.5,447.5 C 496.496,462.658 496.83,477.991 496.5,493.5C 424.665,493.833 352.998,493.499 281.5,492.5C 352.833,492.5 424.167,492.5 495.5,492.5C 495.5,477.5 495.5,462.5 495.5,447.5 Z"/></g>
</svg>
