<?xml version="1.0" encoding="UTF-8"?>
<!DOCTYPE svg PUBLIC "-//W3C//DTD SVG 1.1//EN" "http://www.w3.org/Graphics/SVG/1.1/DTD/svg11.dtd">
<svg xmlns="http://www.w3.org/2000/svg" version="1.1" width="512px" height="512px" style="shape-rendering:geometricPrecision; text-rendering:geometricPrecision; image-rendering:optimizeQuality; fill-rule:evenodd; clip-rule:evenodd" xmlns:xlink="http://www.w3.org/1999/xlink">
<g><path style="opacity:1" fill="#000000" d="M 394.5,3.5 C 396.857,3.33669 399.19,3.50335 401.5,4C 402.667,4.5 403.5,5.33333 404,6.5C 404.667,13.5 404.667,20.5 404,27.5C 399.632,33.0592 395.632,32.7259 392,26.5C 391.333,20.1667 391.333,13.8333 392,7.5C 392.662,6.01608 393.496,4.68275 394.5,3.5 Z"/></g>
<g><path style="opacity:1" fill="#000000" d="M 346.5,16.5 C 351.439,15.3519 354.939,17.0186 357,21.5C 358.746,25.3267 360.746,28.9934 363,32.5C 364.394,40.7817 361.227,43.6151 353.5,41C 349.957,36.0839 346.79,30.9172 344,25.5C 342.93,21.8579 343.764,18.8579 346.5,16.5 Z"/></g>
<g><path style="opacity:1" fill="#000000" d="M 442.5,16.5 C 448.31,14.9696 451.977,16.9696 453.5,22.5C 450.936,27.9603 448.103,33.2936 445,38.5C 441,43.8333 437,43.8333 433,38.5C 432.833,37.5 432.667,36.5 432.5,35.5C 435.042,28.7502 438.375,22.4169 442.5,16.5 Z"/></g>
<g><path style="opacity:1" fill="#030100" d="M 388.5,38.5 C 417.897,36.2841 440.73,47.2841 457,71.5C 467.233,90.1219 468.9,109.455 462,129.5C 456.687,140.795 450.354,151.461 443,161.5C 439.054,168.673 436.72,176.34 436,184.5C 435.667,193.5 435.333,202.5 435,211.5C 433.753,216.008 431.086,219.341 427,221.5C 427.305,227.912 425.972,233.912 423,239.5C 420.559,241.969 417.726,243.802 414.5,245C 403.5,245.667 392.5,245.667 381.5,245C 377.618,243.321 374.452,240.821 372,237.5C 370.208,231.987 369.042,226.32 368.5,220.5C 364.656,218.158 362.156,214.825 361,210.5C 360.667,200.833 360.333,191.167 360,181.5C 358.689,172.876 355.689,164.876 351,157.5C 341.158,145.815 334.491,132.482 331,117.5C 328.235,74.9807 347.402,48.6474 388.5,38.5 Z"/></g>
<g><path style="opacity:1" fill="#020201" d="M 177.5,46.5 C 223.536,45.2506 255.703,65.584 274,107.5C 287.22,150.136 277.054,185.969 243.5,215C 265.107,220.636 285.44,229.302 304.5,241C 319.536,252.03 331.703,265.53 341,281.5C 348.153,279.06 355.319,276.727 362.5,274.5C 364.912,274.406 366.745,275.406 368,277.5C 368.5,299.164 368.667,320.831 368.5,342.5C 413.501,342.333 458.501,342.5 503.5,343C 507.292,345.053 508.458,348.219 507,352.5C 506.167,353.333 505.333,354.167 504.5,355C 492.808,356.198 487.475,362.698 488.5,374.5C 487.475,386.302 492.808,392.802 504.5,394C 508.032,397.39 508.366,401.057 505.5,405C 493.372,406.403 487.705,413.237 488.5,425.5C 487.458,437.287 492.791,443.787 504.5,445C 505.667,445.5 506.5,446.333 507,447.5C 507.667,449.833 507.667,452.167 507,454.5C 502.708,456.7 498.208,458.533 493.5,460C 489.71,464.571 488.043,469.905 488.5,476C 487.352,488.516 493.019,495.182 505.5,496C 508.167,499.667 508.167,503.333 505.5,507C 439.167,507.667 372.833,507.667 306.5,507C 293.848,502.197 287.848,493.031 288.5,479.5C 262.164,488.557 235.831,497.723 209.5,507C 193.833,507.667 178.167,507.667 162.5,507C 111.576,488.803 60.5756,470.803 9.5,453C 7.41267,452.208 5.57934,451.041 4,449.5C 3.33333,392.167 3.33333,334.833 4,277.5C 5.25503,275.406 7.08836,274.406 9.5,274.5C 16.6808,276.727 23.8475,279.06 31,281.5C 45.9336,255.58 67.4336,237.08 95.5,226C 106.418,221.916 117.418,218.249 128.5,215C 93.8293,184.963 83.996,148.13 99,104.5C 114.531,70.6621 140.698,51.3287 177.5,46.5 Z"/></g>
<g><path style="opacity:1" fill="#000000" d="M 311.5,51.5 C 313.527,51.3379 315.527,51.5045 317.5,52C 322.167,54.6667 326.833,57.3333 331.5,60C 335.667,68.6697 333,72.3364 323.5,71C 318.833,68.3333 314.167,65.6667 309.5,63C 306.446,58.4048 307.112,54.5715 311.5,51.5 Z"/></g>
<g><path style="opacity:1" fill="#f5bd31" d="M 407.5,51.5 C 439.184,69.034 450.351,95.3673 441,130.5C 436.338,140.499 430.671,149.833 424,158.5C 420.405,164.787 417.905,171.454 416.5,178.5C 415.169,170.193 414.502,161.527 414.5,152.5C 414.833,143.833 415.167,135.167 415.5,126.5C 423.433,124.785 430.266,121.118 436,115.5C 443.373,103.027 441.54,92.1939 430.5,83C 418.909,78.5052 411.076,82.3385 407,94.5C 404.864,101.711 403.364,109.044 402.5,116.5C 399.5,116.5 396.5,116.5 393.5,116.5C 393.348,106.224 390.848,96.5569 386,87.5C 377.069,77.9794 368.402,78.3127 360,88.5C 351.7,106.092 356.867,118.258 375.5,125C 377.74,125.977 380.073,126.477 382.5,126.5C 382.5,143.833 382.5,161.167 382.5,178.5C 378.833,178.5 375.167,178.5 371.5,178.5C 371.437,173.246 370.27,168.246 368,163.5C 360.301,149.813 352.634,136.147 345,122.5C 338.193,87.2754 351.693,63.7754 385.5,52C 392.832,50.3557 400.165,50.189 407.5,51.5 Z"/></g>
<g><path style="opacity:1" fill="#000000" d="M 479.5,51.5 C 487.47,51.4402 489.97,55.1069 487,62.5C 482.249,65.4594 477.416,68.2928 472.5,71C 465.17,72.6662 462.003,69.8329 463,62.5C 468.307,58.4378 473.807,54.7711 479.5,51.5 Z"/></g>
<g><path style="opacity:1" fill="#f4ab1e" d="M 407.5,51.5 C 431.664,56.8305 446.831,71.4971 453,95.5C 455.144,109.838 452.478,123.172 445,135.5C 438.874,143.638 433.54,152.304 429,161.5C 426.423,166.887 424.923,172.554 424.5,178.5C 421.833,178.5 419.167,178.5 416.5,178.5C 417.905,171.454 420.405,164.787 424,158.5C 430.671,149.833 436.338,140.499 441,130.5C 450.351,95.3673 439.184,69.034 407.5,51.5 Z"/></g>
<g><path style="opacity:1" fill="#f0ada0" d="M 172.5,60.5 C 215.535,56.1033 245.701,73.77 263,113.5C 274.327,156.539 261.16,189.705 223.5,213C 213.386,217.984 202.719,220.817 191.5,221.5C 224.972,200.891 240.139,170.891 237,131.5C 231.168,98.6732 213.001,75.5066 182.5,62C 179.274,60.8011 175.941,60.3011 172.5,60.5 Z"/></g>
<g><path style="opacity:1" fill="#f2c7ba" d="M 172.5,60.5 C 175.941,60.3011 179.274,60.8011 182.5,62C 213.001,75.5066 231.168,98.6732 237,131.5C 240.139,170.891 224.972,200.891 191.5,221.5C 154.119,222.397 127.286,206.064 111,172.5C 96.3475,128.788 108.181,94.2881 146.5,69C 154.627,64.4575 163.294,61.6241 172.5,60.5 Z"/></g>
<g><path style="opacity:1" fill="#ebb62f" d="M 372.5,92.5 C 375.091,93.2543 376.924,94.921 378,97.5C 380.219,103.066 381.052,108.733 380.5,114.5C 374.985,112.815 370.818,109.482 368,104.5C 366.976,99.5482 368.476,95.5482 372.5,92.5 Z"/></g>
<g><path style="opacity:1" fill="#ecb62f" d="M 421.5,92.5 C 424.642,92.7993 426.809,94.4659 428,97.5C 429.357,106.991 425.19,112.324 415.5,113.5C 415.178,105.779 417.178,98.7787 421.5,92.5 Z"/></g>
<g><path style="opacity:1" fill="#000000" d="M 300.5,99.5 C 307.257,99.1226 313.924,99.6226 320.5,101C 322.478,103.497 322.978,106.331 322,109.5C 321.5,110.667 320.667,111.5 319.5,112C 312.167,112.667 304.833,112.667 297.5,112C 293.086,106.488 294.086,102.322 300.5,99.5 Z"/></g>
<g><path style="opacity:1" fill="#000000" d="M 478.5,99.5 C 484.509,99.3338 490.509,99.5005 496.5,100C 502.244,103.132 502.911,107.132 498.5,112C 491.167,112.667 483.833,112.667 476.5,112C 472.142,106.984 472.808,102.817 478.5,99.5 Z"/></g>
<g><path style="opacity:1" fill="#e9b52e" d="M 393.5,128.5 C 396.5,128.5 399.5,128.5 402.5,128.5C 402.5,145.167 402.5,161.833 402.5,178.5C 399.5,178.5 396.5,178.5 393.5,178.5C 393.5,161.833 393.5,145.167 393.5,128.5 Z"/></g>
<g><path style="opacity:1" fill="#958ea1" d="M 414.5,210.5 C 401.496,210.667 388.496,210.5 375.5,210C 374.619,209.292 373.953,208.458 373.5,207.5C 373.5,202.167 373.5,196.833 373.5,191.5C 387.167,191.5 400.833,191.5 414.5,191.5C 414.5,197.833 414.5,204.167 414.5,210.5 Z"/></g>
<g><path style="opacity:1" fill="#7a7582" d="M 414.5,210.5 C 414.5,204.167 414.5,197.833 414.5,191.5C 400.833,191.5 387.167,191.5 373.5,191.5C 373.5,196.833 373.5,202.167 373.5,207.5C 372.511,202.025 372.178,196.358 372.5,190.5C 389.5,190.5 406.5,190.5 423.5,190.5C 423.666,196.176 423.499,201.843 423,207.5C 420.847,210.124 418.013,211.124 414.5,210.5 Z"/></g>
<g><path style="opacity:1" fill="#827c88" d="M 405.5,222.5 C 405.5,225.833 405.5,229.167 405.5,232.5C 398.833,232.5 392.167,232.5 385.5,232.5C 384.504,232.586 383.671,232.252 383,231.5C 382.502,228.518 382.335,225.518 382.5,222.5C 390.167,222.5 397.833,222.5 405.5,222.5 Z"/></g>
<g><path style="opacity:1" fill="#6c6676" d="M 405.5,222.5 C 408.5,222.5 411.5,222.5 414.5,222.5C 414.663,224.857 414.497,227.19 414,229.5C 413.5,231.333 412.333,232.5 410.5,233C 401.99,233.823 393.656,233.657 385.5,232.5C 392.167,232.5 398.833,232.5 405.5,232.5C 405.5,229.167 405.5,225.833 405.5,222.5 Z"/></g>
<g><path style="opacity:1" fill="#6fc0f9" d="M 212.5,230.5 C 231.316,236.904 248.316,246.404 263.5,259C 276.114,270.43 284.781,284.263 289.5,300.5C 261.819,310.227 234.152,320.061 206.5,330C 192.833,330.667 179.167,330.667 165.5,330C 124.786,315.596 84.1192,301.096 43.5,286.5C 53.7482,267.085 68.7482,252.585 88.5,243C 106.041,234.153 124.541,228.32 144,225.5C 152.68,228.391 161.513,230.891 170.5,233C 184.643,234.162 198.643,233.329 212.5,230.5 Z"/></g>
<g><path style="opacity:1" fill="#4aadf8" d="M 289.5,300.5 C 284.781,284.263 276.114,270.43 263.5,259C 248.316,246.404 231.316,236.904 212.5,230.5C 216.939,228.463 221.606,226.796 226.5,225.5C 257.657,229.486 285.323,241.32 309.5,261C 317.417,268.34 323.75,276.84 328.5,286.5C 315.477,291.174 302.477,295.84 289.5,300.5 Z"/></g>
<g><path style="opacity:1" fill="#c06f3d" d="M 15.5,289.5 C 63.4827,306.495 111.483,323.495 159.5,340.5C 160.5,391.162 160.833,441.829 160.5,492.5C 112.087,476.196 63.9208,459.196 16,441.5C 15.5,390.834 15.3333,340.168 15.5,289.5 Z"/></g>
<g><path style="opacity:1" fill="#bf6f3d" d="M 354.5,289.5 C 356.487,307.136 357.153,325.136 356.5,343.5C 339.83,343.333 323.163,343.5 306.5,344C 297.138,347.36 291.305,353.86 289,363.5C 288.333,370.5 288.333,377.5 289,384.5C 290.408,390.486 293.242,395.652 297.5,400C 290.229,406.729 287.229,415.063 288.5,425C 288.667,428.5 288.833,432 289,435.5C 290.701,441.57 293.368,446.903 297,451.5C 292.935,455.811 289.768,460.644 287.5,466C 262.462,474.735 237.462,483.568 212.5,492.5C 211.167,441.833 211.167,391.167 212.5,340.5C 260.084,323.864 307.417,306.864 354.5,289.5 Z"/></g>
<g><path style="opacity:1" fill="#8c4f26" d="M 198.5,495.5 C 198.5,444.833 198.5,394.167 198.5,343.5C 190.167,343.5 181.833,343.5 173.5,343.5C 173.5,394.167 173.5,444.833 173.5,495.5C 172.501,444.669 172.168,393.669 172.5,342.5C 181.5,342.5 190.5,342.5 199.5,342.5C 199.832,393.669 199.499,444.669 198.5,495.5 Z"/></g>
<g><path style="opacity:1" fill="#ae6431" d="M 198.5,495.5 C 190.167,495.5 181.833,495.5 173.5,495.5C 173.5,444.833 173.5,394.167 173.5,343.5C 181.833,343.5 190.167,343.5 198.5,343.5C 198.5,394.167 198.5,444.833 198.5,495.5 Z"/></g>
<g><path style="opacity:1" fill="#05a188" d="M 308.5,355.5 C 365.504,355.167 422.504,355.5 479.5,356.5C 477.739,360.303 476.739,364.303 476.5,368.5C 423.499,368.333 370.499,368.5 317.5,369C 313.5,372.667 313.5,376.333 317.5,380C 370.499,380.5 423.499,380.667 476.5,380.5C 476.871,384.649 477.871,388.649 479.5,392.5C 422.503,393.667 365.503,393.833 308.5,393C 301.773,388.513 299.107,382.18 300.5,374C 299.25,366.012 301.916,359.845 308.5,355.5 Z"/></g>
<g><path style="opacity:1" fill="#f4bc30" d="M 479.5,443.5 C 424.336,444.499 369.003,444.832 313.5,444.5C 307.125,443.899 302.959,440.566 301,434.5C 300.333,428.167 300.333,421.833 301,415.5C 302.833,411 306,407.833 310.5,406C 366.832,405.5 423.166,405.333 479.5,405.5C 477.315,409.884 476.315,414.551 476.5,419.5C 423.499,419.333 370.499,419.5 317.5,420C 313.381,424.073 313.715,427.74 318.5,431C 371.166,431.5 423.832,431.667 476.5,431.5C 476.878,435.678 477.878,439.678 479.5,443.5 Z"/></g>
<g><path style="opacity:1" fill="#312405" d="M 479.5,443.5 C 480.043,443.56 480.376,443.893 480.5,444.5C 424.668,445.831 369.001,445.831 313.5,444.5C 369.003,444.832 424.336,444.499 479.5,443.5 Z"/></g>
<g><path style="opacity:1" fill="#c64a0c" d="M 310.5,457.5 C 366.664,456.501 422.998,456.168 479.5,456.5C 479.737,457.791 479.404,458.791 478.5,459.5C 422.843,457.504 366.843,456.837 310.5,457.5 Z"/></g>
<g><path style="opacity:1" fill="#f55b11" d="M 310.5,457.5 C 366.843,456.837 422.843,457.504 478.5,459.5C 476.909,462.961 476.242,466.628 476.5,470.5C 423.499,470.333 370.499,470.5 317.5,471C 314.175,473.635 313.675,476.802 316,480.5C 316.75,481.126 317.584,481.626 318.5,482C 371.166,482.5 423.832,482.667 476.5,482.5C 476.871,486.649 477.871,490.649 479.5,494.5C 422.836,495.667 366.17,495.833 309.5,495C 302.211,490.753 299.211,484.419 300.5,476C 299.046,467.065 302.38,460.898 310.5,457.5 Z"/></g>
</svg>
