<svg xmlns="http://www.w3.org/2000/svg" width="512" height="512" viewBox="0 0 512 512" version="1.1"><path d="M 20.223 80.119 C 17.433 81.500, 15.087 83.702, 13.473 86.456 L 11 90.676 11 236.937 C 11 399.771, 10.450 387.189, 17.810 392.806 L 21.339 395.500 45.170 395.801 L 69 396.101 69 388.051 L 69 380 51.056 380 C 33.529 380, 33.046 379.944, 30.306 377.587 L 27.500 375.173 27.500 237.114 L 27.500 99.056 29.744 96.811 L 31.989 94.567 255.967 94.533 L 479.944 94.500 482.222 96.778 L 484.500 99.056 484.500 237.114 L 484.500 375.173 481.694 377.587 L 478.888 380 321.444 380 L 164 380 164 388 L 164 396 326.250 395.984 L 488.500 395.967 492.480 393.713 C 494.711 392.449, 497.449 389.711, 498.713 387.480 L 500.967 383.500 500.984 237.088 L 501 90.676 498.514 86.434 C 496.857 83.606, 494.585 81.494, 491.698 80.096 L 487.369 78 255.934 78.001 L 24.500 78.002 20.223 80.119 M 156.804 142.041 C 149.522 145.886, 145.354 154.452, 146.301 163.626 C 147.237 172.699, 152.030 179.114, 159.899 181.828 C 165.060 183.607, 169.106 183.250, 174.559 180.532 C 189.096 173.288, 189.644 150.309, 175.470 142.282 C 170.347 139.380, 162.045 139.272, 156.804 142.041 M 225.175 149.825 C 224.171 150.829, 221.658 155.891, 219.590 161.075 C 217.522 166.259, 211.757 180.534, 206.779 192.797 L 197.727 215.095 191.113 202.797 L 184.500 190.500 169.233 190.224 C 152.315 189.918, 150 190.478, 150 194.880 C 150 199.998, 152.277 200.905, 165.897 201.218 L 178.209 201.500 186.060 216.500 C 199.155 241.520, 198.953 241.617, 214.452 202.833 C 220.900 186.700, 227.527 170.238, 229.181 166.250 L 232.187 159 283.522 159 C 328.857 159, 335.041 158.816, 336.429 157.429 C 338.033 155.824, 338.382 154.656, 338.049 152 C 337.558 148.075, 336.485 148, 280.809 148 C 230.053 148, 226.896 148.104, 225.175 149.825 M 159.923 153.923 C 156.582 157.265, 156.026 162.215, 158.463 166.928 C 161.923 173.619, 172.714 171.972, 174.598 164.466 C 177.160 154.257, 166.935 146.911, 159.923 153.923 M 242.200 181.200 C 239.274 184.126, 240.889 187.349, 249.731 196.232 L 258.462 205.004 247.731 215.768 C 236.854 226.679, 235.141 229.741, 238.200 232.800 C 241.665 236.265, 243.984 234.532, 267.893 210.607 C 288.997 189.489, 291.208 186.963, 290.623 184.636 C 289.834 181.489, 286.693 179.648, 283.712 180.583 C 282.496 180.965, 277.880 184.805, 273.455 189.116 L 265.410 196.954 256.977 188.477 C 248.419 179.874, 245.140 178.260, 242.200 181.200 M 79.280 189.088 C 78.059 189.542, 76.763 191.098, 76.399 192.546 C 75.832 194.806, 76.561 196.009, 81.554 201.055 L 87.370 206.932 81.685 212.892 C 78.558 216.170, 76 219.235, 76 219.703 C 76 220.172, 76.701 221.555, 77.557 222.777 C 80.189 226.536, 83.778 225.651, 89.727 219.776 L 95.016 214.553 99.534 219.717 C 104.818 225.758, 107.154 226.785, 110.549 224.560 C 114.474 221.988, 113.724 218.645, 107.820 212.404 L 102.641 206.927 107.820 201.682 C 113.074 196.362, 113.826 194.412, 111.965 190.934 C 110.069 187.391, 106.048 188.521, 100.281 194.216 L 95 199.432 89.750 194.356 C 83.817 188.619, 82.425 187.919, 79.280 189.088 M 330.976 193.604 L 325.101 199.208 319.704 194.104 C 314.097 188.802, 311.246 187.897, 308.571 190.571 C 305.918 193.225, 306.786 195.893, 312.145 201.560 L 317.290 207 312.145 212.440 C 306.322 218.597, 305.539 221.996, 309.365 224.504 C 312.532 226.579, 315.317 225.402, 320.935 219.616 L 325.369 215.048 331.110 220.524 C 334.268 223.536, 337.355 226, 337.971 226 C 339.424 226, 344 221.424, 344 219.971 C 344 219.355, 341.442 216.170, 338.315 212.892 L 332.630 206.932 338.315 201.187 C 344.462 194.975, 345.085 193.085, 342 190 C 338.975 186.975, 337.379 187.497, 330.976 193.604 M 385.479 233.012 C 383.818 233.365, 381.252 234.444, 379.778 235.410 C 373.707 239.388, 370.750 252.750, 375 257 C 377.407 259.407, 378.840 259.501, 381.777 257.443 C 383.543 256.207, 384 254.911, 384 251.143 C 384 245.979, 385.247 244, 388.500 244 C 391.321 244, 393 245.853, 393 248.969 C 393 250.892, 390.486 254.042, 383 261.500 C 375.362 269.109, 373 272.088, 373 274.109 C 373 275.564, 373.564 277.223, 374.253 277.795 C 374.941 278.366, 381.172 278.984, 388.097 279.167 C 401.965 279.534, 404 278.883, 404 274.078 C 404 270.232, 402.253 269, 396.800 269 C 394.160 269, 392 268.644, 392 268.208 C 392 267.773, 394.061 265.410, 396.580 262.958 C 402.476 257.219, 404.001 254.206, 403.996 248.300 C 403.988 238.277, 395.130 230.963, 385.479 233.012 M 154.791 254.937 C 145.070 258.053, 139.517 269.298, 143.064 278.685 C 144.367 282.134, 148.575 286.695, 152.200 288.589 C 153.686 289.365, 157.195 290, 160 290 C 173.610 290, 181.782 276.927, 176.057 264.316 C 172.681 256.882, 162.597 252.434, 154.791 254.937 M 180.606 284.642 C 139.820 324.818, 142 322.517, 142 325.405 C 142 327.961, 145.225 331, 147.939 331 C 148.761 331, 164.860 315.596, 183.716 296.769 C 211.924 268.606, 218 262.058, 218 259.826 C 218 257.291, 214.968 254, 212.633 254 C 212.127 254, 197.714 267.789, 180.606 284.642 M 323.088 255.386 C 314.684 258.424, 307.867 270.099, 311.112 275.899 C 313.850 280.794, 321 278.891, 321 273.268 C 321 271.925, 322.302 269.545, 323.923 267.923 C 326.758 265.088, 327.142 265, 336.701 265 C 347.626 265, 349.878 265.876, 351.977 270.944 C 354.302 276.557, 352.720 279.825, 342.997 289.503 C 336.101 296.367, 334 299.089, 334 301.158 C 334 304.596, 336.393 306.999, 339.821 307.004 C 343.216 307.008, 348.384 310.130, 350.601 313.514 C 351.542 314.949, 352.354 318.160, 352.406 320.648 C 352.484 324.428, 352.038 325.569, 349.694 327.586 C 347.132 329.791, 346.020 330, 336.867 330 C 327.125 330, 326.765 329.919, 323.923 327.077 C 322.302 325.455, 321 323.075, 321 321.732 C 321 316.026, 313.640 314.153, 311.210 319.240 C 308.465 324.984, 313.546 334.551, 321.446 338.517 C 325.791 340.698, 327.677 340.997, 336.946 340.978 C 348.705 340.954, 353.408 339.492, 358.186 334.376 C 361.779 330.530, 363.182 326.549, 363.126 320.368 C 363.059 313.121, 360.545 307.676, 354.941 302.637 L 350.106 298.290 353.618 294.895 C 355.549 293.028, 358.451 289.510, 360.065 287.079 C 362.587 283.280, 363 281.704, 363 275.894 C 363 268.050, 361.919 264.620, 358.186 260.624 C 353.376 255.474, 348.713 254.038, 337 254.098 C 331.225 254.128, 324.965 254.707, 323.088 255.386 M 155.174 267.314 C 150.645 272.136, 153.480 279, 160 279 C 162.883 279, 164.289 278.426, 165.443 276.777 C 167.673 273.595, 167.365 269.691, 164.686 267.174 C 161.683 264.354, 157.904 264.409, 155.174 267.314 M 254.818 285.500 C 253.966 287.370, 253.966 288.630, 254.818 290.500 L 255.957 293 270.779 293 C 286.676 293, 288 292.616, 288 288 C 288 283.384, 286.676 283, 270.779 283 L 255.957 283 254.818 285.500 M 191.610 297.365 C 181.596 303.427, 179.835 317.922, 188.169 325.702 C 191.234 328.565, 197.133 331, 201 331 C 211.194 331, 220.548 319.702, 218.510 309.851 C 215.977 297.606, 201.961 291.099, 191.610 297.365 M 195.488 308.013 C 191.419 312.509, 194.649 320, 200.656 320 C 203.407 320, 208 315.922, 208 313.480 C 208 311.516, 206.102 307.768, 204.600 306.765 C 202.408 305.301, 197.311 305.999, 195.488 308.013 M 255.655 307.829 C 253.484 310.228, 253.555 313.287, 255.829 315.345 C 257.341 316.713, 260 317, 271.174 317 C 282.998 317, 284.897 316.771, 286.345 315.171 C 288.431 312.867, 288.467 309.609, 286.429 307.571 C 285.152 306.295, 282.272 306, 271.084 306 C 259.010 306, 257.106 306.226, 255.655 307.829 M 91.499 376.644 C 89.719 378.424, 90.207 382.874, 92.329 384.225 C 92.973 384.634, 98.997 384.976, 105.715 384.985 C 116.777 384.999, 118.027 384.817, 118.965 383.066 C 120.435 380.318, 120.269 379.269, 118 377 C 116.233 375.233, 114.667 375, 104.571 375 C 95.302 375, 92.832 375.311, 91.499 376.644 M 11.144 409.828 C 11.591 419.653, 14.991 425.863, 22.448 430.474 L 27.343 433.500 256 433.500 L 484.657 433.500 489.552 430.474 C 497.009 425.863, 500.409 419.653, 500.856 409.828 C 501.052 405.523, 500.965 402, 500.663 402 C 500.361 402, 498.401 403.012, 496.307 404.250 L 492.500 406.500 256 406.500 L 19.500 406.500 15.693 404.250 C 13.599 403.012, 11.639 402, 11.337 402 C 11.035 402, 10.948 405.523, 11.144 409.828" stroke="none" fill="#edac86" fill-rule="evenodd"/><path d="M 18.275 68.654 C 12.278 70.777, 4.700 77.944, 2.127 83.926 L -0.018 88.912 0.241 254.206 L 0.500 419.500 3.094 425 C 6.230 431.647, 12.631 438.235, 19.454 441.837 L 24.500 444.500 255.500 444.500 L 486.500 444.500 492 441.906 C 499.133 438.541, 505.698 431.902, 508.717 425 C 510.040 421.975, 511.545 418.719, 512.061 417.764 C 513.119 415.808, 513.410 86.257, 512.353 87.313 C 511.998 87.669, 510.712 85.814, 509.497 83.192 C 508.282 80.569, 505.174 76.562, 502.589 74.287 C 493.551 66.332, 516.134 66.991, 255.572 67.079 C 51.347 67.148, 21.977 67.343, 18.275 68.654 M 20.223 80.119 C 17.433 81.500, 15.087 83.702, 13.473 86.456 L 11 90.676 11 236.937 C 11 399.771, 10.450 387.189, 17.810 392.806 L 21.339 395.500 45.170 395.801 L 69 396.101 69 388.051 L 69 380 51.056 380 C 33.529 380, 33.046 379.944, 30.306 377.587 L 27.500 375.173 27.500 237.114 L 27.500 99.056 29.744 96.811 L 31.989 94.567 255.967 94.533 L 479.944 94.500 482.222 96.778 L 484.500 99.056 484.500 237.114 L 484.500 375.173 481.694 377.587 L 478.888 380 321.444 380 L 164 380 164 388 L 164 396 326.250 395.984 L 488.500 395.967 492.480 393.713 C 494.711 392.449, 497.449 389.711, 498.713 387.480 L 500.967 383.500 500.984 237.088 L 501 90.676 498.514 86.434 C 496.857 83.606, 494.585 81.494, 491.698 80.096 L 487.369 78 255.934 78.001 L 24.500 78.002 20.223 80.119 M 0.488 253 C 0.488 344.025, 0.606 381.262, 0.750 335.750 C 0.894 290.237, 0.894 215.762, 0.750 170.250 C 0.606 124.737, 0.488 161.975, 0.488 253 M 156.804 142.041 C 149.522 145.886, 145.354 154.452, 146.301 163.626 C 147.237 172.699, 152.030 179.114, 159.899 181.828 C 165.060 183.607, 169.106 183.250, 174.559 180.532 C 189.096 173.288, 189.644 150.309, 175.470 142.282 C 170.347 139.380, 162.045 139.272, 156.804 142.041 M 225.175 149.825 C 224.171 150.829, 221.658 155.891, 219.590 161.075 C 217.522 166.259, 211.757 180.534, 206.779 192.797 L 197.727 215.095 191.113 202.797 L 184.500 190.500 169.233 190.224 C 152.315 189.918, 150 190.478, 150 194.880 C 150 199.998, 152.277 200.905, 165.897 201.218 L 178.209 201.500 186.060 216.500 C 199.155 241.520, 198.953 241.617, 214.452 202.833 C 220.900 186.700, 227.527 170.238, 229.181 166.250 L 232.187 159 283.522 159 C 328.857 159, 335.041 158.816, 336.429 157.429 C 338.033 155.824, 338.382 154.656, 338.049 152 C 337.558 148.075, 336.485 148, 280.809 148 C 230.053 148, 226.896 148.104, 225.175 149.825 M 159.923 153.923 C 156.582 157.265, 156.026 162.215, 158.463 166.928 C 161.923 173.619, 172.714 171.972, 174.598 164.466 C 177.160 154.257, 166.935 146.911, 159.923 153.923 M 242.200 181.200 C 239.274 184.126, 240.889 187.349, 249.731 196.232 L 258.462 205.004 247.731 215.768 C 236.854 226.679, 235.141 229.741, 238.200 232.800 C 241.665 236.265, 243.984 234.532, 267.893 210.607 C 288.997 189.489, 291.208 186.963, 290.623 184.636 C 289.834 181.489, 286.693 179.648, 283.712 180.583 C 282.496 180.965, 277.880 184.805, 273.455 189.116 L 265.410 196.954 256.977 188.477 C 248.419 179.874, 245.140 178.260, 242.200 181.200 M 79.280 189.088 C 78.059 189.542, 76.763 191.098, 76.399 192.546 C 75.832 194.806, 76.561 196.009, 81.554 201.055 L 87.370 206.932 81.685 212.892 C 78.558 216.170, 76 219.235, 76 219.703 C 76 220.172, 76.701 221.555, 77.557 222.777 C 80.189 226.536, 83.778 225.651, 89.727 219.776 L 95.016 214.553 99.534 219.717 C 104.818 225.758, 107.154 226.785, 110.549 224.560 C 114.474 221.988, 113.724 218.645, 107.820 212.404 L 102.641 206.927 107.820 201.682 C 113.074 196.362, 113.826 194.412, 111.965 190.934 C 110.069 187.391, 106.048 188.521, 100.281 194.216 L 95 199.432 89.750 194.356 C 83.817 188.619, 82.425 187.919, 79.280 189.088 M 330.976 193.604 L 325.101 199.208 319.704 194.104 C 314.097 188.802, 311.246 187.897, 308.571 190.571 C 305.918 193.225, 306.786 195.893, 312.145 201.560 L 317.290 207 312.145 212.440 C 306.322 218.597, 305.539 221.996, 309.365 224.504 C 312.532 226.579, 315.317 225.402, 320.935 219.616 L 325.369 215.048 331.110 220.524 C 334.268 223.536, 337.355 226, 337.971 226 C 339.424 226, 344 221.424, 344 219.971 C 344 219.355, 341.442 216.170, 338.315 212.892 L 332.630 206.932 338.315 201.187 C 344.462 194.975, 345.085 193.085, 342 190 C 338.975 186.975, 337.379 187.497, 330.976 193.604 M 385.479 233.012 C 383.818 233.365, 381.252 234.444, 379.778 235.410 C 373.707 239.388, 370.750 252.750, 375 257 C 377.407 259.407, 378.840 259.501, 381.777 257.443 C 383.543 256.207, 384 254.911, 384 251.143 C 384 245.979, 385.247 244, 388.500 244 C 391.321 244, 393 245.853, 393 248.969 C 393 250.892, 390.486 254.042, 383 261.500 C 375.362 269.109, 373 272.088, 373 274.109 C 373 275.564, 373.564 277.223, 374.253 277.795 C 374.941 278.366, 381.172 278.984, 388.097 279.167 C 401.965 279.534, 404 278.883, 404 274.078 C 404 270.232, 402.253 269, 396.800 269 C 394.160 269, 392 268.644, 392 268.208 C 392 267.773, 394.061 265.410, 396.580 262.958 C 402.476 257.219, 404.001 254.206, 403.996 248.300 C 403.988 238.277, 395.130 230.963, 385.479 233.012 M 154.791 254.937 C 145.070 258.053, 139.517 269.298, 143.064 278.685 C 144.367 282.134, 148.575 286.695, 152.200 288.589 C 153.686 289.365, 157.195 290, 160 290 C 173.610 290, 181.782 276.927, 176.057 264.316 C 172.681 256.882, 162.597 252.434, 154.791 254.937 M 180.606 284.642 C 139.820 324.818, 142 322.517, 142 325.405 C 142 327.961, 145.225 331, 147.939 331 C 148.761 331, 164.860 315.596, 183.716 296.769 C 211.924 268.606, 218 262.058, 218 259.826 C 218 257.291, 214.968 254, 212.633 254 C 212.127 254, 197.714 267.789, 180.606 284.642 M 323.088 255.386 C 314.684 258.424, 307.867 270.099, 311.112 275.899 C 313.850 280.794, 321 278.891, 321 273.268 C 321 271.925, 322.302 269.545, 323.923 267.923 C 326.758 265.088, 327.142 265, 336.701 265 C 347.626 265, 349.878 265.876, 351.977 270.944 C 354.302 276.557, 352.720 279.825, 342.997 289.503 C 336.101 296.367, 334 299.089, 334 301.158 C 334 304.596, 336.393 306.999, 339.821 307.004 C 343.216 307.008, 348.384 310.130, 350.601 313.514 C 351.542 314.949, 352.354 318.160, 352.406 320.648 C 352.484 324.428, 352.038 325.569, 349.694 327.586 C 347.132 329.791, 346.020 330, 336.867 330 C 327.125 330, 326.765 329.919, 323.923 327.077 C 322.302 325.455, 321 323.075, 321 321.732 C 321 316.026, 313.640 314.153, 311.210 319.240 C 308.465 324.984, 313.546 334.551, 321.446 338.517 C 325.791 340.698, 327.677 340.997, 336.946 340.978 C 348.705 340.954, 353.408 339.492, 358.186 334.376 C 361.779 330.530, 363.182 326.549, 363.126 320.368 C 363.059 313.121, 360.545 307.676, 354.941 302.637 L 350.106 298.290 353.618 294.895 C 355.549 293.028, 358.451 289.510, 360.065 287.079 C 362.587 283.280, 363 281.704, 363 275.894 C 363 268.050, 361.919 264.620, 358.186 260.624 C 353.376 255.474, 348.713 254.038, 337 254.098 C 331.225 254.128, 324.965 254.707, 323.088 255.386 M 155.174 267.314 C 150.645 272.136, 153.480 279, 160 279 C 162.883 279, 164.289 278.426, 165.443 276.777 C 167.673 273.595, 167.365 269.691, 164.686 267.174 C 161.683 264.354, 157.904 264.409, 155.174 267.314 M 254.818 285.500 C 253.966 287.370, 253.966 288.630, 254.818 290.500 L 255.957 293 270.779 293 C 286.676 293, 288 292.616, 288 288 C 288 283.384, 286.676 283, 270.779 283 L 255.957 283 254.818 285.500 M 191.610 297.365 C 181.596 303.427, 179.835 317.922, 188.169 325.702 C 191.234 328.565, 197.133 331, 201 331 C 211.194 331, 220.548 319.702, 218.510 309.851 C 215.977 297.606, 201.961 291.099, 191.610 297.365 M 195.488 308.013 C 191.419 312.509, 194.649 320, 200.656 320 C 203.407 320, 208 315.922, 208 313.480 C 208 311.516, 206.102 307.768, 204.600 306.765 C 202.408 305.301, 197.311 305.999, 195.488 308.013 M 255.655 307.829 C 253.484 310.228, 253.555 313.287, 255.829 315.345 C 257.341 316.713, 260 317, 271.174 317 C 282.998 317, 284.897 316.771, 286.345 315.171 C 288.431 312.867, 288.467 309.609, 286.429 307.571 C 285.152 306.295, 282.272 306, 271.084 306 C 259.010 306, 257.106 306.226, 255.655 307.829 M 91.499 376.644 C 89.719 378.424, 90.207 382.874, 92.329 384.225 C 92.973 384.634, 98.997 384.976, 105.715 384.985 C 116.777 384.999, 118.027 384.817, 118.965 383.066 C 120.435 380.318, 120.269 379.269, 118 377 C 116.233 375.233, 114.667 375, 104.571 375 C 95.302 375, 92.832 375.311, 91.499 376.644 M 11.144 409.828 C 11.591 419.653, 14.991 425.863, 22.448 430.474 L 27.343 433.500 256 433.500 L 484.657 433.500 489.552 430.474 C 497.009 425.863, 500.409 419.653, 500.856 409.828 C 501.052 405.523, 500.965 402, 500.663 402 C 500.361 402, 498.401 403.012, 496.307 404.250 L 492.500 406.500 256 406.500 L 19.500 406.500 15.693 404.250 C 13.599 403.012, 11.639 402, 11.337 402 C 11.035 402, 10.948 405.523, 11.144 409.828" stroke="none" fill="#2a4a56" fill-rule="evenodd"/></svg>