<?xml version="1.0" encoding="UTF-8"?>
<!DOCTYPE svg PUBLIC "-//W3C//DTD SVG 1.1//EN" "http://www.w3.org/Graphics/SVG/1.1/DTD/svg11.dtd">
<svg xmlns="http://www.w3.org/2000/svg" version="1.1" width="512px" height="512px" style="shape-rendering:geometricPrecision; text-rendering:geometricPrecision; image-rendering:optimizeQuality; fill-rule:evenodd; clip-rule:evenodd" xmlns:xlink="http://www.w3.org/1999/xlink">
<g><path style="opacity:1" fill="#008ff9" d="M 44.5,-0.5 C 154.167,-0.5 263.833,-0.5 373.5,-0.5C 387.882,1.69853 397.715,9.69853 403,23.5C 404.442,40.4436 404.942,57.4436 404.5,74.5C 275.167,74.5 145.833,74.5 16.5,74.5C 16.3334,59.163 16.5001,43.8297 17,28.5C 20.6094,13.3944 29.776,3.72772 44.5,-0.5 Z"/></g>
<g><path style="opacity:1" fill="#007dfa" d="M 373.5,-0.5 C 385.167,-0.5 396.833,-0.5 408.5,-0.5C 424.391,4.22546 433.557,14.8921 436,31.5C 436.5,45.8295 436.667,60.1628 436.5,74.5C 425.833,74.5 415.167,74.5 404.5,74.5C 404.942,57.4436 404.442,40.4436 403,23.5C 397.715,9.69853 387.882,1.69853 373.5,-0.5 Z"/></g>
<g><path style="opacity:1" fill="#f5f1f3" d="M 326.5,30.5 C 336.896,31.411 339.229,36.2444 333.5,45C 324.667,46.8333 321.167,43.3333 323,34.5C 323.69,32.6498 324.856,31.3164 326.5,30.5 Z"/></g>
<g><path style="opacity:1" fill="#f2eff3" d="M 355.5,30.5 C 364.721,31.1087 367.388,35.6087 363.5,44C 354.336,48.1478 350.169,45.3144 351,35.5C 352.025,33.313 353.525,31.6464 355.5,30.5 Z"/></g>
<g><path style="opacity:1" fill="#f2eff3" d="M 383.5,30.5 C 391.183,29.686 394.683,33.0193 394,40.5C 391.565,45.2238 387.731,46.7238 382.5,45C 378.326,39.8821 378.66,35.0488 383.5,30.5 Z"/></g>
<g><path style="opacity:1" fill="#f2e6e6" d="M 16.5,74.5 C 145.833,74.5 275.167,74.5 404.5,74.5C 404.5,151.833 404.5,229.167 404.5,306.5C 400.922,306.549 397.589,307.215 394.5,308.5C 362.185,317.316 341.685,337.982 333,370.5C 327.431,411.863 342.931,442.363 379.5,462C 384.304,464.213 389.304,465.713 394.5,466.5C 394.842,467.338 395.508,467.672 396.5,467.5C 390.791,474.344 383.458,478.51 374.5,480C 255.167,480.5 135.834,480.667 16.5,480.5C 16.5,345.167 16.5,209.833 16.5,74.5 Z"/></g>
<g><path style="opacity:1" fill="#ece0e0" d="M 404.5,74.5 C 415.167,74.5 425.833,74.5 436.5,74.5C 436.5,152.833 436.5,231.167 436.5,309.5C 426.032,306.857 415.365,305.857 404.5,306.5C 404.5,229.167 404.5,151.833 404.5,74.5 Z"/></g>
<g><path style="opacity:1" fill="#f9cd4b" d="M 164.5,108.5 C 210.692,128.197 231.859,163.197 228,213.5C 225.099,229.952 218.932,244.952 209.5,258.5C 203.041,250.369 195.374,243.703 186.5,238.5C 193.671,228.004 196.671,216.337 195.5,203.5C 198.176,185.688 192.842,170.854 179.5,159C 163.513,149.001 147.513,149.001 131.5,159C 117.774,171.011 112.774,185.845 116.5,203.5C 116.334,209.842 116.5,216.175 117,222.5C 118.725,228.279 121.225,233.612 124.5,238.5C 110.263,246.594 99.9294,258.261 93.5,273.5C 90.3567,272.866 87.8567,271.2 86,268.5C 59.7513,237.445 53.7513,202.778 68,164.5C 88.0061,124.751 120.173,106.084 164.5,108.5 Z"/></g>
<g><path style="opacity:1" fill="#f9c134" d="M 164.5,108.5 C 204.786,113.61 231.953,135.277 246,173.5C 256.85,213.095 247.35,246.762 217.5,274.5C 215.61,269.051 212.943,264.051 209.5,259.5C 209.5,259.167 209.5,258.833 209.5,258.5C 218.932,244.952 225.099,229.952 228,213.5C 231.859,163.197 210.692,128.197 164.5,108.5 Z"/></g>
<g><path style="opacity:1" fill="#12cef9" d="M 279.5,137.5 C 313.835,137.333 348.168,137.5 382.5,138C 385.667,139.167 387.833,141.333 389,144.5C 389.667,153.833 389.667,163.167 389,172.5C 387.749,175.381 385.583,177.214 382.5,178C 348.167,178.667 313.833,178.667 279.5,178C 276.667,176.5 274.5,174.333 273,171.5C 272.333,162.5 272.333,153.5 273,144.5C 274.694,141.642 276.861,139.309 279.5,137.5 Z"/></g>
<g><path style="opacity:1" fill="#4e8995" d="M 195.5,203.5 C 180.51,201.23 167.01,195.563 155,186.5C 148.931,190.12 142.764,193.62 136.5,197C 129.842,199.275 123.175,201.442 116.5,203.5C 112.774,185.845 117.774,171.011 131.5,159C 147.513,149.001 163.513,149.001 179.5,159C 192.842,170.854 198.176,185.688 195.5,203.5 Z"/></g>
<g><path style="opacity:1" fill="#c76a57" d="M 195.5,203.5 C 196.671,216.337 193.671,228.004 186.5,238.5C 165.833,257.167 145.167,257.167 124.5,238.5C 121.225,233.612 118.725,228.279 117,222.5C 116.5,216.175 116.334,209.842 116.5,203.5C 123.175,201.442 129.842,199.275 136.5,197C 142.764,193.62 148.931,190.12 155,186.5C 167.01,195.563 180.51,201.23 195.5,203.5 Z"/></g>
<g><path style="opacity:1" fill="#13cef9" d="M 279.5,217.5 C 313.835,217.333 348.168,217.5 382.5,218C 385.583,218.786 387.749,220.619 389,223.5C 389.667,232.833 389.667,242.167 389,251.5C 387.413,254.756 384.913,256.923 381.5,258C 347.833,258.667 314.167,258.667 280.5,258C 277.804,257.31 275.637,255.81 274,253.5C 272.413,243.908 272.08,234.242 273,224.5C 274.694,221.642 276.861,219.309 279.5,217.5 Z"/></g>
<g><path style="opacity:1" fill="#07a2f9" d="M 124.5,238.5 C 145.167,257.167 165.833,257.167 186.5,238.5C 195.374,243.703 203.041,250.369 209.5,258.5C 209.5,258.833 209.5,259.167 209.5,259.5C 203.133,265.542 196.467,271.375 189.5,277C 172.377,288.097 153.71,294.264 133.5,295.5C 119.866,292.349 107.532,286.516 96.5,278C 94.8588,276.871 93.8588,275.371 93.5,273.5C 99.9294,258.261 110.263,246.594 124.5,238.5 Z"/></g>
<g><path style="opacity:1" fill="#0e90f9" d="M 209.5,259.5 C 212.943,264.051 215.61,269.051 217.5,274.5C 192.911,294.647 164.911,301.647 133.5,295.5C 153.71,294.264 172.377,288.097 189.5,277C 196.467,271.375 203.133,265.542 209.5,259.5 Z"/></g>
<g><path style="opacity:1" fill="#03c1a2" d="M 404.5,306.5 C 415.365,305.857 426.032,306.857 436.5,309.5C 463.677,317.843 481.843,335.509 491,362.5C 501.428,406.793 486.928,439.96 447.5,462C 443.979,463.674 440.313,464.84 436.5,465.5C 423.357,469.793 410.024,470.459 396.5,467.5C 395.508,467.672 394.842,467.338 394.5,466.5C 426.318,461.494 447.818,443.827 459,413.5C 462.909,401.058 464.076,388.392 462.5,375.5C 463.115,371.009 462.115,367.009 459.5,363.5C 449.086,331.802 427.419,313.469 394.5,308.5C 397.589,307.215 400.922,306.549 404.5,306.5 Z"/></g>
<g><path style="opacity:1" fill="#04d49c" d="M 394.5,308.5 C 427.419,313.469 449.086,331.802 459.5,363.5C 454.702,359.203 450.035,354.703 445.5,350C 442.634,348.543 439.634,348.21 436.5,349C 424.863,359.637 413.529,370.637 402.5,382C 401.5,382.667 400.5,382.667 399.5,382C 396.465,378.63 393.132,375.63 389.5,373C 386.366,372.21 383.366,372.543 380.5,374C 375,379.5 369.5,385 364,390.5C 362.627,392.695 362.294,395.029 363,397.5C 370.097,406.6 377.931,415.1 386.5,423C 396.367,429.06 406.034,428.726 415.5,422C 431.035,406.298 446.701,390.798 462.5,375.5C 464.076,388.392 462.909,401.058 459,413.5C 447.818,443.827 426.318,461.494 394.5,466.5C 389.304,465.713 384.304,464.213 379.5,462C 342.931,442.363 327.431,411.863 333,370.5C 341.685,337.982 362.185,317.316 394.5,308.5 Z"/></g>
<g><path style="opacity:1" fill="#649caf" d="M 61.5,316.5 C 136.167,316.333 210.834,316.5 285.5,317C 290.689,319.913 291.856,324.08 289,329.5C 288.25,330.126 287.416,330.626 286.5,331C 211.167,331.667 135.833,331.667 60.5,331C 55.0028,325.683 55.3361,320.85 61.5,316.5 Z"/></g>
<g><path style="opacity:1" fill="#f8f2f2" d="M 459.5,363.5 C 462.115,367.009 463.115,371.009 462.5,375.5C 446.701,390.798 431.035,406.298 415.5,422C 406.034,428.726 396.367,429.06 386.5,423C 377.931,415.1 370.097,406.6 363,397.5C 362.294,395.029 362.627,392.695 364,390.5C 369.5,385 375,379.5 380.5,374C 383.366,372.543 386.366,372.21 389.5,373C 393.132,375.63 396.465,378.63 399.5,382C 400.5,382.667 401.5,382.667 402.5,382C 413.529,370.637 424.863,359.637 436.5,349C 439.634,348.21 442.634,348.543 445.5,350C 450.035,354.703 454.702,359.203 459.5,363.5 Z"/></g>
<g><path style="opacity:1" fill="#699eb0" d="M 61.5,359.5 C 136.167,359.333 210.834,359.5 285.5,360C 290.689,362.913 291.856,367.08 289,372.5C 287.581,373.46 286.081,374.293 284.5,375C 210.5,375.667 136.5,375.667 62.5,375C 54.9569,370.165 54.6236,364.998 61.5,359.5 Z"/></g>
<g><path style="opacity:1" fill="#699eb0" d="M 61.5,402.5 C 136.167,402.333 210.834,402.5 285.5,403C 290.689,405.913 291.856,410.08 289,415.5C 288.097,416.701 286.931,417.535 285.5,418C 210.833,418.667 136.167,418.667 61.5,418C 54.8601,412.705 54.8601,407.539 61.5,402.5 Z"/></g>
<g><path style="opacity:1" fill="#699eb1" d="M 62.5,445.5 C 136.834,445.333 211.167,445.5 285.5,446C 290.224,448.435 291.724,452.269 290,457.5C 288.786,459.049 287.286,460.215 285.5,461C 210.833,461.667 136.167,461.667 61.5,461C 54.6324,455.371 54.9657,450.205 62.5,445.5 Z"/></g>
<g><path style="opacity:1" fill="#ede1e1" d="M 436.5,465.5 C 438.793,488.296 429.46,503.629 408.5,511.5C 287.167,511.5 165.833,511.5 44.5,511.5C 28.9493,506.942 19.616,496.609 16.5,480.5C 135.834,480.667 255.167,480.5 374.5,480C 383.458,478.51 390.791,474.344 396.5,467.5C 410.024,470.459 423.357,469.793 436.5,465.5 Z"/></g>
</svg>
